<?xml version="1.0" encoding="UTF-8" standalone="no"?>
<svg
   version="1.1"
   id="svg2"
   viewBox="0 0 32 32"
   sodipodi:docname="akregator.svg"
   width="32"
   height="32"
   inkscape:version="1.1.1 (3bf5ae0d25, 2021-09-20, custom)"
   xmlns:inkscape="http://www.inkscape.org/namespaces/inkscape"
   xmlns:sodipodi="http://sodipodi.sourceforge.net/DTD/sodipodi-0.dtd"
   xmlns="http://www.w3.org/2000/svg"
   xmlns:svg="http://www.w3.org/2000/svg">
  <sodipodi:namedview
     id="namedview11"
     pagecolor="#c8c8c8"
     bordercolor="#999999"
     borderopacity="1"
     inkscape:pageshadow="0"
     inkscape:pageopacity="0"
     inkscape:pagecheckerboard="0"
     showgrid="true"
     inkscape:zoom="7.8960257"
     inkscape:cx="-9.8150643"
     inkscape:cy="14.944227"
     inkscape:window-width="1920"
     inkscape:window-height="1005"
     inkscape:window-x="0"
     inkscape:window-y="0"
     inkscape:window-maximized="1"
     inkscape:current-layer="svg2">
    <inkscape:grid
       type="xygrid"
       id="grid828" />
  </sodipodi:namedview>
  <defs
     id="defs3051">
    <style
       type="text/css"
       id="current-color-scheme">.ColorScheme-Text{color:#dfdfdf}</style>
  </defs>
  <g
     id="22-22-akregator"
     transform="translate(-22)">
    <path
       id="path7"
       d="M 0,10 V 32 H 22 V 10 Z"
       opacity="1"
       fill="none" />
    <path
       id="path9"
       style="fill:#fbfbfb;fill-opacity:1"
       class="ColorScheme-Text"
       d="M -19 13 L -19 16 A 13 13 0 0 1 -6 29 L -3 29 A 16 16 0 0 0 -19 13 z M -19 19 L -19 22 A 7 7 0 0 1 -12 29 L -9 29 A 10 10 0 0 0 -19 19 z M -17 25 A 2 2 0 0 0 -19 27 A 2 2 0 0 0 -17 29 A 2 2 0 0 0 -15 27 A 2 2 0 0 0 -17 25 z "
       transform="translate(22)" />
  </g>
  <g
     id="akregator"
     transform="translate(-22)">
    <path
       id="path12"
       style="fill:#fbfbfb;fill-opacity:1"
       class="ColorScheme-Text"
       d="M 4 4 L 4 8 A 20 20 0 0 1 24 28 L 28 28 A 24 24 0 0 0 4 4 z M 4 12 L 4 16 A 12 12 0 0 1 16 28 L 20 28 A 16 16 0 0 0 4 12 z M 7.5 21 A 3.5 3.5 0 0 0 4 24.5 A 3.5 3.5 0 0 0 7.5 28 A 3.5 3.5 0 0 0 11 24.5 A 3.5 3.5 0 0 0 7.5 21 z "
       transform="translate(22)" />
    <path
       id="path14"
       d="M 22,0 V 32 H 54 V 0 Z"
       opacity="1"
       fill="none" />
  </g>
</svg>
