<?xml version="1.0" encoding="UTF-8" standalone="no"?>
<svg
   id="svg4353"
   width="22"
   height="22"
   version="1.1"
   viewBox="0 0 22 22"
   sodipodi:docname="apport.svg"
   inkscape:version="1.1.1 (3bf5ae0d25, 2021-09-20, custom)"
   xmlns:inkscape="http://www.inkscape.org/namespaces/inkscape"
   xmlns:sodipodi="http://sodipodi.sourceforge.net/DTD/sodipodi-0.dtd"
   xmlns="http://www.w3.org/2000/svg"
   xmlns:svg="http://www.w3.org/2000/svg"
   xmlns:rdf="http://www.w3.org/1999/02/22-rdf-syntax-ns#"
   xmlns:cc="http://creativecommons.org/ns#"
   xmlns:dc="http://purl.org/dc/elements/1.1/">
  <metadata
     id="metadata10">
    <rdf:RDF>
      <cc:Work
         rdf:about="">
        <dc:format>image/svg+xml</dc:format>
        <dc:type
           rdf:resource="http://purl.org/dc/dcmitype/StillImage" />
      </cc:Work>
    </rdf:RDF>
  </metadata>
  <sodipodi:namedview
     pagecolor="#c8c8c8"
     bordercolor="#666666"
     borderopacity="1"
     objecttolerance="10"
     gridtolerance="10"
     guidetolerance="10"
     inkscape:pageopacity="0"
     inkscape:pageshadow="2"
     inkscape:window-width="1920"
     inkscape:window-height="1005"
     id="namedview8"
     showgrid="true"
     inkscape:zoom="14.903982"
     inkscape:cx="0.36902889"
     inkscape:cy="5.9044622"
     inkscape:window-x="0"
     inkscape:window-y="0"
     inkscape:window-maximized="1"
     inkscape:current-layer="svg4353"
     inkscape:pagecheckerboard="0"
     inkscape:snap-bbox="true"
     inkscape:bbox-nodes="true"
     inkscape:snap-bbox-edge-midpoints="true">
    <inkscape:grid
       type="xygrid"
       id="grid827" />
  </sodipodi:namedview>
  <defs
     id="defs8">
    <style
       id="current-color-scheme"
       type="text/css">
   .ColorScheme-Text { color:#dedede; } .ColorScheme-Highlight { color:#5294e2; } .ColorScheme-ButtonBackground { color:#dedede; }
  </style>
  </defs>
  <g
     id="apport">
    <rect
       id="rect5178"
       width="22"
       height="22"
       x="0"
       y="-0.0022146485"
       style="opacity:0.00100002;fill:currentColor" />
    <path
       id="rect860"
       style="fill:#ff3232;fill-opacity:1;fill-rule:evenodd;stroke-width:1.226;stroke-linecap:round;stroke-linejoin:round;paint-order:stroke fill markers"
       d="M 11 3 C 10.489196 3.0000012 9.9781065 3.2605667 9.6953125 3.78125 L 3.1855469 15.765625 C 2.6398769 16.770349 3.3579384 18 4.4902344 18 L 17.509766 18 C 18.642054 18 19.360103 16.770349 18.814453 15.765625 L 12.304688 3.78125 C 12.021888 3.2605617 11.510804 2.9999988 11 3 z M 11 7 C 11.554 7 12 7.446 12 8 L 12 12 C 12 12.554 11.554 13 11 13 C 10.446 13 10 12.554 10 12 L 10 8 C 10 7.446 10.446 7 11 7 z M 11 14 A 1 1 0 0 1 12 15 A 1 1 0 0 1 11 16 A 1 1 0 0 1 10 15 A 1 1 0 0 1 11 14 z " />
  </g>
</svg>
