<?xml version="1.0" encoding="UTF-8" standalone="no"?>
<svg
   width="32"
   height="32"
   version="1.1"
   viewBox="0 0 32 32"
   id="svg33"
   sodipodi:docname="compass.svg"
   inkscape:version="1.1.1 (3bf5ae0d25, 2021-09-20, custom)"
   xmlns:inkscape="http://www.inkscape.org/namespaces/inkscape"
   xmlns:sodipodi="http://sodipodi.sourceforge.net/DTD/sodipodi-0.dtd"
   xmlns:xlink="http://www.w3.org/1999/xlink"
   xmlns="http://www.w3.org/2000/svg"
   xmlns:svg="http://www.w3.org/2000/svg">
  <sodipodi:namedview
     id="namedview35"
     pagecolor="#c8c8c8"
     bordercolor="#999999"
     borderopacity="1"
     inkscape:pageshadow="0"
     inkscape:pageopacity="0"
     inkscape:pagecheckerboard="0"
     showgrid="true"
     inkscape:zoom="9.2954546"
     inkscape:cx="-12.425428"
     inkscape:cy="20.924205"
     inkscape:window-width="1920"
     inkscape:window-height="936"
     inkscape:window-x="0"
     inkscape:window-y="40"
     inkscape:window-maximized="1"
     inkscape:current-layer="svg33"
     inkscape:snap-bbox="true"
     inkscape:snap-bbox-edge-midpoints="true"
     inkscape:bbox-nodes="true"
     inkscape:snap-nodes="false">
    <inkscape:grid
       type="xygrid"
       id="grid852" />
  </sodipodi:namedview>
  <defs
     id="defs16">
    <linearGradient
       id="linearGradient860">
      <stop
         stop-color="#4deb47"
         offset="0"
         id="stop2" />
      <stop
         stop-color="#ffa000"
         offset="1"
         id="stop4" />
    </linearGradient>
    <linearGradient
       id="linearGradient11">
      <stop
         stop-color="#5df240"
         offset="0"
         id="stop7" />
      <stop
         stop-color="#fff400"
         offset="1"
         id="stop9" />
    </linearGradient>
    <style
       id="current-color-scheme"
       type="text/css">.ColorScheme-Text { color:#565656; } .ColorScheme-Highlight { color:#5294e2; }</style>
    <linearGradient
       id="linearGradient848"
       x2="22"
       y1="11"
       y2="11"
       gradientTransform="matrix(1.27272,0,0,1.27272,2,2.0546)"
       gradientUnits="userSpaceOnUse"
       xlink:href="#linearGradient860" />
    <linearGradient
       id="linearGradient877"
       x1="3"
       x2="19"
       y1="11"
       y2="11"
       gradientUnits="userSpaceOnUse"
       xlink:href="#linearGradient860"
       gradientTransform="translate(-24,10)" />
  </defs>
  <g
     id="compass">
    <path
       id="rect978"
       style="fill:#f37d97;fill-opacity:1;fill-rule:evenodd;stroke-width:0.1;stroke-linecap:round;stroke-linejoin:round;paint-order:stroke fill markers"
       d="m 16.583984,2 v 1.447266 c 0,0.483657 -0.391237,0.876953 -0.875,0.876953 -0.483645,0 -0.876953,-0.393296 -0.876953,-0.876953 V 2.035156 C 8.024838,2.596744 2.596743,8.024827 2.035156,14.832031 h 1.41211 c 0.483658,0 0.876953,0.393307 0.876953,0.876953 0,0.483646 -0.393295,0.875 -0.876953,0.875 H 2 c 0.290117,7.078604 5.831321,12.803217 12.832031,13.38086 v -1.41211 c 0,-0.483646 0.393308,-0.876953 0.876953,-0.876953 0.483763,0 0.875,0.393307 0.875,0.876953 V 30 C 23.858289,29.701896 29.701896,23.858172 30,16.583984 h -1.447266 c -0.483646,0 -0.876953,-0.391354 -0.876953,-0.875 0,-0.483646 0.393307,-0.876953 0.876953,-0.876953 h 1.41211 C 29.387201,7.831298 23.662589,2.290129 16.583984,2 Z m -6.097656,7.869141 c 0.0575,0.00376 0.116773,0.01639 0.175781,0.039062 l 5.832032,2.240235 c 1.543299,0.592939 2.762412,1.814121 3.355468,3.357421 l 2.242188,5.832032 c 0.181455,0.472086 -0.28182,0.935244 -0.753906,0.753906 l -5.832032,-2.240235 c -1.5433,-0.593055 -2.764365,-1.814121 -3.357421,-3.357421 L 9.908203,10.662109 C 9.749492,10.249065 10.083807,9.842846 10.486328,9.869141 Z" />
    <rect
       x="0"
       width="32"
       height="32"
       fill="none"
       stroke-linecap="round"
       stroke-linejoin="round"
       stroke-miterlimit="2"
       stroke-width="4.2666"
       id="rect23"
       y="0" />
  </g>
  <g
     id="22-22-compass">
    <rect
       style="opacity:0.00100002;fill:#000000;fill-opacity:1;fill-rule:evenodd;stroke-width:0.175709;stroke-linecap:round;stroke-linejoin:round;paint-order:stroke fill markers"
       id="rect35320"
       width="22"
       height="22"
       x="-24"
       y="10"
       ry="0" />
    <path
       id="rect1083"
       style="fill:#f37d97;fill-opacity:1;fill-rule:evenodd;stroke-width:0.114285;stroke-linecap:round;stroke-linejoin:round;paint-order:stroke fill markers"
       d="m -13,13 c -4.030252,0 -7.365093,2.98024 -7.919644,6.857143 h 1.633929 c 0.31559,0 0.57143,0.25584 0.57143,0.571429 0,0.315588 -0.25584,0.571428 -0.57143,0.571428 H -21 c 0,4.418285 3.581725,8 8,8 v -1.714285 c 0,-0.315543 0.25584,-0.57143 0.571428,-0.57143 0.315589,0 0.571429,0.255887 0.571429,0.57143 v 1.633928 C -7.9802285,28.365128 -5,25.030285 -5,21 h -1.7142857 c -0.3155428,0 -0.5714286,-0.25584 -0.5714286,-0.571428 0,-0.315589 0.2558858,-0.571429 0.5714286,-0.571429 h 1.6339285 C -5.5815,16.353497 -8.3534857,13.581512 -11.857143,13.080357 v 1.633928 c 0,0.31559 -0.25584,0.57143 -0.571429,0.57143 -0.315588,0 -0.571428,-0.25584 -0.571428,-0.57143 z m -2.279019,5.160715 c 0.08995,-0.002 0.183968,0.01888 0.276787,0.06696 l 2.180804,1.129464 c 0.626913,0.324788 1.138343,0.835745 1.464285,1.462053 l 1.142857,2.196428 c 0.2578288,0.495429 -0.274603,1.027919 -0.770089,0.770089 l -2.196429,-1.142857 c -0.626376,-0.325931 -1.137231,-0.837336 -1.462053,-1.464285 l -1.129464,-2.180803 c -0.208371,-0.402201 0.103485,-0.828844 0.493302,-0.837055 z" />
  </g>
</svg>
