<?xml version="1.0" encoding="UTF-8" standalone="no"?>
<svg
   inkscape:version="1.1.1 (3bf5ae0d25, 2021-09-20, custom)"
   sodipodi:docname="computer.svg"
   id="svg60"
   version="1.1"
   height="32"
   width="32"
   xmlns:inkscape="http://www.inkscape.org/namespaces/inkscape"
   xmlns:sodipodi="http://sodipodi.sourceforge.net/DTD/sodipodi-0.dtd"
   xmlns:xlink="http://www.w3.org/1999/xlink"
   xmlns="http://www.w3.org/2000/svg"
   xmlns:svg="http://www.w3.org/2000/svg"
   xmlns:rdf="http://www.w3.org/1999/02/22-rdf-syntax-ns#"
   xmlns:cc="http://creativecommons.org/ns#"
   xmlns:dc="http://purl.org/dc/elements/1.1/">
  <metadata
     id="metadata64">
    <rdf:RDF>
      <cc:Work
         rdf:about="">
        <dc:format>image/svg+xml</dc:format>
        <dc:type
           rdf:resource="http://purl.org/dc/dcmitype/StillImage" />
        <dc:title />
      </cc:Work>
    </rdf:RDF>
  </metadata>
  <sodipodi:namedview
     inkscape:document-rotation="0"
     inkscape:snap-others="false"
     inkscape:object-nodes="false"
     inkscape:snap-midpoints="false"
     inkscape:snap-smooth-nodes="false"
     inkscape:snap-bbox-midpoints="true"
     inkscape:snap-intersection-paths="false"
     inkscape:current-layer="svg60"
     inkscape:window-maximized="1"
     inkscape:window-y="40"
     inkscape:window-x="0"
     inkscape:cy="37.875"
     inkscape:cx="6.125"
     inkscape:zoom="4"
     inkscape:object-paths="false"
     inkscape:snap-nodes="true"
     inkscape:snap-bbox-edge-midpoints="true"
     inkscape:bbox-nodes="true"
     inkscape:snap-bbox="true"
     showgrid="true"
     id="namedview62"
     inkscape:window-height="936"
     inkscape:window-width="1920"
     inkscape:pageshadow="2"
     inkscape:pageopacity="0"
     guidetolerance="10"
     gridtolerance="10"
     objecttolerance="10"
     borderopacity="1"
     bordercolor="#666666"
     pagecolor="#c8c8c8"
     inkscape:pagecheckerboard="0">
    <inkscape:grid
       id="grid879"
       type="xygrid" />
  </sodipodi:namedview>
  <defs
     id="defs6">
    <style
       type="text/css"
       id="current-color-scheme">.ColorScheme-Text { color:#dedede; } .ColorScheme-Highlight { color:#5294e2; } .ColorScheme-ButtonBackground { color:#dedede; }</style>
    <filter
       style="color-interpolation-filters:sRGB"
       height="1.072"
       width="1.072"
       y="-0.035999998"
       x="-0.035999998"
       id="a">
      <feGaussianBlur
         id="feGaussianBlur3"
         stdDeviation="0.435" />
    </filter>
    <style
       type="text/css"
       id="style883" />
    <style
       id="current-color-scheme-5"
       type="text/css">.ColorScheme-Text { color:#dedede; } .ColorScheme-Highlight { color:#5294e2; } .ColorScheme-ButtonBackground { color:#dedede; }</style>
    <filter
       id="a-6"
       x="-0.035999998"
       y="-0.035999998"
       width="1.072"
       height="1.072"
       style="color-interpolation-filters:sRGB">
      <feGaussianBlur
         stdDeviation="0.435"
         id="feGaussianBlur3-2" />
    </filter>
    <style
       id="style883-9"
       type="text/css" />
    <style
       id="style860"
       type="text/css" />
    <style
       id="style862"
       type="text/css" />
    <linearGradient
       gradientUnits="userSpaceOnUse"
       gradientTransform="matrix(7.5589094,0,0,2.1597098,-47.000003,-633.02145)"
       y2="291.71"
       y1="293.56"
       x2="8.2021"
       x1="8.2021"
       id="linearGradient851">
      <stop
         id="stop864"
         offset="0"
         stop-color="#323232" />
      <stop
         id="stop866"
         offset="1" />
    </linearGradient>
    <linearGradient
       gradientUnits="userSpaceOnUse"
       gradientTransform="matrix(1.1338458,0,0,1.8898049,6.3998286,-553.78466)"
       y2="294.09"
       y1="293.39"
       x2="8.2021"
       x1="8.2021"
       id="linearGradient865">
      <stop
         id="stop869"
         offset="0"
         stop-color="#323232" />
      <stop
         id="stop871"
         offset="1" />
    </linearGradient>
    <linearGradient
       gradientUnits="userSpaceOnUse"
       gradientTransform="matrix(0.46667002,0,0,0.51427827,-33.000002,-11.200115)"
       y2="14"
       y1="-21"
       x2="135"
       x1="75"
       id="linearGradient1458">
      <stop
         id="stop874"
         offset="0"
         stop-color="#32b4ff" />
      <stop
         id="stop876"
         offset=".2964"
         stop-color="#2db4ff" />
      <stop
         id="stop878"
         offset=".72739"
         stop-color="#5087e1" />
      <stop
         id="stop880"
         offset="1"
         stop-color="#5a7dd2" />
    </linearGradient>
    <linearGradient
       gradientUnits="userSpaceOnUse"
       y2="51"
       y1="16"
       x2="62"
       x1="2"
       id="linearGradient920"
       gradientTransform="matrix(0.49999998,0,0,0.57142859,3.7924731e-8,-32.142858)">
      <stop
         id="stop883"
         offset="0"
         stop-color="#3c3c3c" />
      <stop
         id="stop885"
         offset="1"
         stop-color="#1e1e1e" />
    </linearGradient>
    <linearGradient
       id="d"
       x1="94.626999"
       x2="128.39999"
       y1="-32.863998"
       y2="-6.7627001"
       gradientUnits="userSpaceOnUse"
       xlink:href="#a-3" />
    <linearGradient
       id="a-3">
      <stop
         id="stop2"
         stop-color="#4227ff"
         offset="0" />
      <stop
         id="stop4"
         stop-color="#bd25ff"
         offset="1" />
    </linearGradient>
    <linearGradient
       id="i"
       x1="90.723999"
       x2="106.59"
       y1="-4.0802999"
       y2="-17.91"
       gradientTransform="matrix(1,0,0,-1,11,-19)"
       gradientUnits="userSpaceOnUse"
       xlink:href="#a-3" />
    <linearGradient
       id="b"
       x1="97"
       x2="125"
       y1="-19"
       y2="-19"
       gradientTransform="matrix(1,0,0,1.1111,0,1.1111)"
       gradientUnits="userSpaceOnUse"
       xlink:href="#a-3" />
  </defs>
  <g
     id="22-22-computer">
    <g
       id="g5505"
       transform="translate(25.999023,-1.000041)">
      <path
         id="rect1263"
         style="fill:#1dc0ea;fill-opacity:1;fill-rule:evenodd;stroke-width:0.1;stroke-linecap:round;stroke-linejoin:round;paint-order:stroke fill markers"
         d="m -17.748047,41 -0.154297,0.0039 c -1.17079,0.0792 -2.095703,1.055194 -2.095703,2.246094 v 10.501953 l 0.0039,0.154297 c 0.07917,1.1708 1.055234,2.095703 2.246094,2.095703 H -13.5 V 58.5 h -1.748047 l -0.101562,0.0059 c -0.36608,0.0497 -0.648438,0.364441 -0.648438,0.744141 0,0.4142 0.33579,0.75 0.75,0.75 h 10.5000001 l 0.1015625,-0.0078 c 0.366,-0.0497 0.6484375,-0.362588 0.6484375,-0.742188 0,-0.4143 -0.3358,-0.75 -0.75,-0.75 H -6.5 v -2.498047 h 4.25 l 0.1542969,-0.0059 C -0.92490313,55.916894 0,54.942853 0,53.751953 V 43.25 L -0.00585938,43.095703 C -0.08495938,41.924903 -1.0591,41 -2.25,41 Z m 0,1.5 H -2.25 l 0.1015625,0.0059 C -1.7823375,42.555459 -1.5,42.8703 -1.5,43.25 v 10.501953 l -0.00781,0.101563 c -0.0497,0.366 -0.3624875,0.648437 -0.7421875,0.648437 H -17.748044 l -0.103515,-0.0078 c -0.36608,-0.0496 -0.646485,-0.362488 -0.646485,-0.742188 V 43.25 l 0.0059,-0.101562 C -18.442528,42.782438 -18.127747,42.5 -17.748047,42.5 Z M -12,56.001953 h 4 V 58.5 h -4 z" />
      <path
         id="path998"
         style="opacity:0.3;fill:#1dc0ea;fill-opacity:1;fill-rule:evenodd;stroke-width:0.1;stroke-linecap:round;stroke-linejoin:round;paint-order:stroke fill markers"
         d="m -17.75,42.5 c -0.04746,0 -0.09366,0.0033 -0.138672,0.01172 -0.04502,0.0084 -0.08907,0.02102 -0.130859,0.03711 -0.0418,0.01609 -0.08134,0.03563 -0.119141,0.05859 -0.0378,0.02297 -0.07244,0.04905 -0.105469,0.07813 -0.03303,0.02907 -0.06431,0.0613 -0.0918,0.0957 -0.02749,0.03441 -0.0511,0.07237 -0.07227,0.111328 -0.02117,0.03896 -0.04061,0.0803 -0.05469,0.123047 -0.01407,0.04274 -0.02309,0.08706 -0.0293,0.132813 L -18.5,43.25 v 10.501953 c 0,0.04746 0.0052,0.09366 0.01367,0.138672 0.0084,0.04502 0.02102,0.08906 0.03711,0.130859 0.01609,0.0418 0.03563,0.08134 0.05859,0.119141 0.02297,0.0378 0.04905,0.07439 0.07813,0.107422 0.02907,0.03303 0.0613,0.06236 0.0957,0.08984 0.03441,0.02748 0.07041,0.05306 0.109375,0.07422 0.03897,0.02116 0.0803,0.03867 0.123047,0.05273 0.04275,0.01407 0.08705,0.0231 0.132813,0.0293 l 0.101562,0.0078 h 15.5 c 0.047463,0 0.093656,-0.0052 0.138672,-0.01367 0.045016,-0.0084 0.089064,-0.02102 0.130859,-0.03711 0.041796,-0.01609 0.08134,-0.03563 0.119141,-0.05859 0.0378,-0.02297 0.072437,-0.04905 0.105469,-0.07813 0.033031,-0.02907 0.064309,-0.0613 0.091797,-0.0957 0.027487,-0.03441 0.051095,-0.07041 0.072265,-0.109375 0.02117,-0.03896 0.040609,-0.0803 0.054688,-0.123047 0.014078,-0.04274 0.023084,-0.08706 0.029297,-0.132812 L -1.5,53.751953 V 43.25 c 0,-0.04746 -0.00524,-0.09366 -0.013672,-0.138672 -0.00843,-0.04502 -0.021026,-0.08906 -0.037109,-0.130859 -0.016084,-0.0418 -0.035629,-0.08134 -0.058594,-0.119141 -0.022965,-0.0378 -0.049053,-0.07439 -0.078125,-0.107422 -0.029072,-0.03303 -0.061298,-0.06236 -0.095703,-0.08984 -0.034405,-0.02748 -0.07041,-0.05306 -0.109375,-0.07422 -0.038965,-0.02116 -0.080296,-0.03867 -0.123047,-0.05273 -0.042751,-0.01407 -0.08705,-0.02505 -0.132813,-0.03125 L -2.25,42.5 Z" />
    </g>
    <rect
       height="22"
       width="22"
       x="-27"
       transform="scale(-1,1)"
       id="rect23"
       y="37.983051"
       style="color:#bebebe;opacity:0;stroke-width:2" />
  </g>
  <g
     id="16-16-computer">
    <g
       id="g127650"
       transform="translate(21,1.9957619)">
      <path
         id="path120844"
         style="opacity:0.3;fill:#1dc0ea;fill-opacity:1;fill-rule:evenodd;stroke-width:0.1;stroke-linecap:round;stroke-linejoin:round;paint-order:stroke fill markers"
         d="m -11,65 c -0.06903,0 -0.136075,0.0062 -0.201172,0.01953 -0.0651,0.01332 -0.127681,0.03329 -0.1875,0.05859 -0.05982,0.0253 -0.116721,0.05585 -0.169922,0.0918 -0.0532,0.03594 -0.103196,0.0778 -0.148437,0.123047 -0.04524,0.04524 -0.0871,0.09524 -0.123047,0.148437 -0.03594,0.0532 -0.06649,0.110103 -0.0918,0.169922 -0.0253,0.05982 -0.04527,0.122403 -0.05859,0.1875 C -11.99379,65.863925 -12,65.930965 -12,66 v 9 c 0,0.06904 0.0062,0.136073 0.01953,0.201172 0.01332,0.0651 0.03329,0.12768 0.05859,0.1875 0.0253,0.05982 0.05585,0.116722 0.0918,0.169922 0.03594,0.0532 0.0778,0.103197 0.123047,0.148437 0.04524,0.04524 0.09524,0.08711 0.148437,0.123047 0.0532,0.03594 0.110103,0.0665 0.169922,0.0918 0.05982,0.0253 0.122403,0.04527 0.1875,0.05859 C -11.136075,75.993789 -11.069035,76 -11,76 H 1 c 0.069038,0 0.1360732,-0.0062 0.2011719,-0.01953 0.065099,-0.01332 0.1276804,-0.03329 0.1875,-0.05859 0.059819,-0.0253 0.1167217,-0.05586 0.1699219,-0.0918 0.0532,-0.03594 0.1031968,-0.07781 0.1484374,-0.123047 0.045241,-0.04524 0.087106,-0.09524 0.1230469,-0.148437 0.035941,-0.0532 0.066496,-0.110103 0.091797,-0.169922 0.025301,-0.05982 0.045273,-0.122401 0.058594,-0.1875 C 1.9937893,75.136073 2,75.069038 2,75 V 66 C 2,65.93097 1.99379,65.863925 1.980469,65.798828 1.967148,65.733728 1.947176,65.671147 1.921875,65.611328 1.896574,65.551508 1.866019,65.494607 1.830078,65.441406 1.794137,65.388206 1.752272,65.33821 1.7070311,65.292969 c -0.045241,-0.04524 -0.095237,-0.0871 -0.1484374,-0.123047 -0.0532,-0.03594 -0.1101024,-0.0665 -0.1699219,-0.0918 -0.05982,-0.0253 -0.1224014,-0.04527 -0.1875,-0.05859 C 1.1360732,65.00621 1.0690375,65 1,65 Z" />
      <path
         id="path120842"
         style="opacity:1;fill:#1dc0ea;fill-opacity:1;fill-rule:evenodd;stroke-width:0.1;stroke-linecap:round;stroke-linejoin:round;paint-order:stroke fill markers"
         d="m -11,64 c -0.06904,0 -0.137844,0.0029 -0.205078,0.0098 -0.06723,0.0068 -0.132168,0.01793 -0.197266,0.03125 -0.0651,0.01332 -0.130733,0.02935 -0.193359,0.04883 -0.06263,0.01948 -0.123775,0.04111 -0.183594,0.06641 -0.05982,0.0253 -0.117151,0.05515 -0.173828,0.08594 -0.05668,0.03079 -0.112815,0.06367 -0.166016,0.09961 -0.0532,0.03594 -0.102955,0.07448 -0.152343,0.115234 -0.04939,0.04076 -0.09734,0.08366 -0.142578,0.128907 -0.04524,0.04524 -0.08815,0.09319 -0.128907,0.142578 -0.04076,0.04939 -0.07929,0.09914 -0.115234,0.152343 -0.03594,0.0532 -0.06882,0.109339 -0.09961,0.166016 -0.03079,0.05668 -0.06064,0.114009 -0.08594,0.173828 -0.0253,0.05982 -0.04693,0.120968 -0.06641,0.183594 -0.01948,0.06263 -0.03551,0.128262 -0.04883,0.193359 -0.01332,0.0651 -0.02442,0.130032 -0.03125,0.197266 C -12.997062,65.862156 -13,65.930964 -13,66 v 9 c 0,0.06904 0.0029,0.137843 0.0098,0.205078 0.0068,0.06724 0.01793,0.132167 0.03125,0.197266 0.01332,0.0651 0.02935,0.130733 0.04883,0.193359 0.01948,0.06263 0.0411,0.123774 0.06641,0.183594 0.0253,0.05982 0.05515,0.117151 0.08594,0.173828 0.03079,0.05668 0.06367,0.112815 0.09961,0.166016 0.03594,0.0532 0.07447,0.102955 0.115234,0.152343 0.04076,0.04939 0.08366,0.09734 0.128907,0.142578 0.04524,0.04524 0.09319,0.08815 0.142578,0.128907 0.04939,0.04076 0.09914,0.07929 0.152343,0.115234 0.0532,0.03594 0.109339,0.06882 0.166016,0.09961 0.05668,0.03079 0.114009,0.06064 0.173828,0.08594 0.05982,0.0253 0.120968,0.04693 0.183594,0.06641 0.06263,0.01948 0.128262,0.03551 0.193359,0.04883 0.0651,0.01332 0.130032,0.02442 0.197266,0.03125 C -11.137844,76.997062 -11.069036,77 -11,77 h 3 v 2 h -1.5 c -0.034517,0 -0.069014,0.0031 -0.1015625,0.0098 -0.032549,0.0067 -0.06384,0.01664 -0.09375,0.0293 -0.02991,0.01265 -0.057384,0.0289 -0.083984,0.04688 -0.0266,0.01797 -0.051598,0.03793 -0.074219,0.06055 -0.022621,0.02262 -0.042576,0.04762 -0.060547,0.07422 -0.017971,0.0266 -0.034224,0.05408 -0.046875,0.08398 -0.012651,0.02991 -0.022636,0.0612 -0.029297,0.09375 C -9.9968949,79.430983 -10,79.465487 -10,79.5 c 0,0.03451 0.00311,0.06902 0.00977,0.101562 0.00666,0.03255 0.016646,0.06384 0.029297,0.09375 0.012651,0.02991 0.028904,0.05738 0.046875,0.08398 0.017971,0.0266 0.037926,0.0516 0.060547,0.07422 0.022621,0.02262 0.047619,0.04257 0.074219,0.06055 0.0266,0.01797 0.054075,0.03422 0.083984,0.04688 0.02991,0.01265 0.061201,0.02264 0.09375,0.0293 C -9.5690139,79.996896 -9.5345175,80 -9.5,80 h 9 c 0.0345125,0 0.0690166,-0.0031 0.1015625,-0.0098 0.0325459,-0.0067 0.0638414,-0.01664 0.09375,-0.0293 0.0299086,-0.01265 0.0573838,-0.0289 0.0839844,-0.04688 0.0266006,-0.01797 0.0515969,-0.03793 0.0742187,-0.06055 0.0226219,-0.02262 0.0425744,-0.04762 0.06054688,-0.07422 0.01797246,-0.0266 0.03422266,-0.05408 0.046875,-0.08398 0.01265234,-0.02991 0.02263535,-0.0612 0.02929687,-0.09375 C -0.0031041,79.569017 0,79.534513 0,79.5 c 0,-0.03451 -0.0031041,-0.06902 -0.00976563,-0.101562 -0.00666152,-0.03255 -0.01664453,-0.06384 -0.02929687,-0.09375 -0.01265234,-0.02991 -0.02890254,-0.05738 -0.046875,-0.08398 -0.01797246,-0.0266 -0.037925,-0.0516 -0.06054688,-0.07422 -0.0226219,-0.02262 -0.0476182,-0.04257 -0.0742187,-0.06055 -0.0266006,-0.01797 -0.0540758,-0.03422 -0.0839844,-0.04688 -0.0299086,-0.01265 -0.0612041,-0.02264 -0.09375,-0.0293 C -0.4309834,79.003104 -0.4654875,79 -0.5,79 H -2 v -2 h 3 c 0.069038,0 0.1378425,-0.0029 0.2050781,-0.0098 0.067236,-0.0068 0.132167,-0.01793 0.1972657,-0.03125 0.065099,-0.01332 0.1307327,-0.02935 0.1933593,-0.04883 0.062627,-0.01948 0.1237742,-0.04111 0.1835938,-0.06641 0.059819,-0.0253 0.1171507,-0.05515 0.1738281,-0.08594 0.056677,-0.03079 0.1128154,-0.06367 0.1660156,-0.09961 0.0532,-0.03594 0.1029558,-0.07448 0.1523438,-0.115234 0.049388,-0.04076 0.097338,-0.08367 0.1425781,-0.128907 0.045241,-0.04524 0.088148,-0.09319 0.1289063,-0.142578 0.040758,-0.04939 0.079293,-0.09914 0.1152343,-0.152343 0.035941,-0.0532 0.068821,-0.109339 0.099609,-0.166016 0.030788,-0.05668 0.060637,-0.114009 0.085937,-0.173828 0.025301,-0.05982 0.046928,-0.120967 0.066406,-0.183594 0.019478,-0.06263 0.035508,-0.128261 0.048828,-0.193359 0.013321,-0.0651 0.024422,-0.13003 0.03125,-0.197266 C 2.9970622,75.137843 3,75.069038 3,75 V 66 C 3,65.93096 2.99706,65.862156 2.99023,65.794922 2.9834,65.727692 2.972301,65.662754 2.95898,65.597656 2.94566,65.532556 2.92963,65.466923 2.910152,65.404297 2.890674,65.341667 2.869047,65.280522 2.843746,65.220703 2.818445,65.160883 2.788597,65.103552 2.757809,65.046875 2.727021,64.990195 2.69414,64.93406 2.6582,64.880859 2.622259,64.827659 2.583724,64.777904 2.5429657,64.728516 c -0.040758,-0.04939 -0.083666,-0.09734 -0.1289063,-0.142578 -0.045241,-0.04524 -0.09319,-0.08815 -0.1425781,-0.128907 -0.049388,-0.04076 -0.099144,-0.07929 -0.1523438,-0.115234 -0.0532,-0.03594 -0.1093382,-0.06882 -0.1660156,-0.09961 -0.056677,-0.03079 -0.1140086,-0.06064 -0.1738281,-0.08594 C 1.7194738,64.130947 1.6583266,64.109317 1.5957,64.089837 1.533073,64.070357 1.4674393,64.054327 1.4023407,64.041007 1.3372417,64.027687 1.2723106,64.016587 1.205075,64.009757 1.1378425,64.002938 1.0690375,64 1,64 Z m 0,1 H 1 c 0.069038,0 0.1360732,0.0062 0.2011719,0.01953 0.065099,0.01332 0.1276804,0.03329 0.1875,0.05859 0.059819,0.0253 0.1167217,0.05585 0.1699219,0.0918 0.0532,0.03594 0.1031968,0.0778 0.1484374,0.123047 0.045241,0.04524 0.087106,0.09524 0.1230469,0.148437 0.035941,0.0532 0.066496,0.110103 0.091797,0.169922 0.025301,0.05982 0.045273,0.122403 0.058594,0.1875 C 1.9937893,65.863925 2,65.930965 2,66 v 9 c 0,0.06904 -0.00621,0.136073 -0.019531,0.201172 -0.013321,0.0651 -0.033293,0.12768 -0.058594,0.1875 -0.025301,0.05982 -0.055856,0.116722 -0.091797,0.169922 -0.035941,0.0532 -0.077806,0.103197 -0.1230469,0.148437 -0.045241,0.04524 -0.095237,0.08711 -0.1484374,0.123047 -0.0532,0.03594 -0.1101024,0.0665 -0.1699219,0.0918 -0.05982,0.0253 -0.1224014,0.04527 -0.1875,0.05859 C 1.1360732,75.993789 1.0690375,76 1,76 h -12 c -0.06903,0 -0.136075,-0.0062 -0.201172,-0.01953 -0.0651,-0.01332 -0.127681,-0.03329 -0.1875,-0.05859 -0.05982,-0.0253 -0.116721,-0.05586 -0.169922,-0.0918 -0.0532,-0.03594 -0.103196,-0.07781 -0.148437,-0.123047 -0.04524,-0.04524 -0.0871,-0.09524 -0.123047,-0.148437 -0.03594,-0.0532 -0.06649,-0.110103 -0.0918,-0.169922 -0.0253,-0.05982 -0.04527,-0.122401 -0.05859,-0.1875 C -11.99379,75.136073 -12,75.069038 -12,75 v -9 c 0,-0.06903 0.0062,-0.136075 0.01953,-0.201172 0.01332,-0.0651 0.03329,-0.127681 0.05859,-0.1875 0.0253,-0.05982 0.05585,-0.116721 0.0918,-0.169922 0.03594,-0.0532 0.0778,-0.103196 0.123047,-0.148437 0.04524,-0.04524 0.09524,-0.0871 0.148437,-0.123047 0.0532,-0.03594 0.110103,-0.0665 0.169922,-0.0918 0.05982,-0.0253 0.122403,-0.04527 0.1875,-0.05859 C -11.136075,65.00621 -11.069035,65 -11,65 Z m 4,12 h 4 v 2 h -4 z" />
    </g>
    <rect
       height="16"
       width="16"
       y="65.995758"
       x="-24"
       transform="scale(-1,1)"
       id="rect16"
       style="color:#bebebe;fill:none" />
    <rect
       height="16"
       width="16"
       y="65.995758"
       x="-24"
       transform="scale(-1,1)"
       id="rect18"
       style="color:#bebebe;opacity:0;stroke-width:3" />
  </g>
  <g
     id="22-22-computer-laptop">
    <g
       id="g138244"
       transform="translate(-24.003885)">
      <path
         id="rect127864"
         style="opacity:1;fill:#1dc0ea;fill-opacity:1;fill-rule:evenodd;stroke-width:0.1;stroke-linecap:round;stroke-linejoin:round;paint-order:stroke fill markers"
         d="m 83.072266,40.5 c -0.08845,0 -0.176825,0.0043 -0.263672,0.01172 -0.08685,0.0074 -0.172923,0.0186 -0.257813,0.0332 -0.08489,0.0146 -0.167418,0.03124 -0.25,0.05273 -0.08258,0.02149 -0.164216,0.04807 -0.24414,0.07617 -0.07993,0.0281 -0.159412,0.05931 -0.236329,0.09375 -0.07691,0.03444 -0.151051,0.07082 -0.224609,0.111328 -0.07356,0.0405 -0.144995,0.08457 -0.214844,0.13086 -0.06985,0.04629 -0.139288,0.09468 -0.205078,0.146484 -0.06579,0.0518 -0.128073,0.107022 -0.189453,0.164062 -0.06138,0.05704 -0.121114,0.115732 -0.177734,0.177735 -0.05662,0.062 -0.1106,0.126669 -0.16211,0.193359 -0.05151,0.06669 -0.100435,0.13593 -0.146484,0.207032 -0.04605,0.0711 -0.08867,0.145464 -0.128906,0.220703 -0.04024,0.07524 -0.07921,0.151369 -0.113282,0.230468 -0.03408,0.0791 -0.06423,0.159502 -0.0918,0.242188 -0.02756,0.08269 -0.05156,0.167909 -0.07227,0.253906 l -1.990234,8.273438 c -0.0336,0.139562 -0.05764,0.279575 -0.07422,0.417968 -0.01658,0.138394 -0.02504,0.275892 -0.02539,0.41211 -3.47e-4,0.136218 0.0064,0.271262 0.02148,0.404297 0.01509,0.133034 0.03863,0.263733 0.06836,0.392578 0.02973,0.128844 0.0658,0.255259 0.109375,0.378906 0.04358,0.123647 0.09376,0.243886 0.150391,0.361328 0.05663,0.117442 0.120559,0.231567 0.189453,0.341797 0.06889,0.11023 0.142294,0.216348 0.222656,0.318359 0.08036,0.102012 0.166775,0.200184 0.257813,0.292969 0.09104,0.09278 0.188144,0.18112 0.289062,0.263672 0.100918,0.08255 0.2064,0.159158 0.316406,0.230469 0.110007,0.07131 0.223496,0.136249 0.341797,0.195312 0.118301,0.05906 0.241385,0.112395 0.367188,0.158203 0.125802,0.04581 0.254208,0.08564 0.386718,0.117188 0.132511,0.03155 0.267825,0.05404 0.40625,0.07031 0.138425,0.01628 0.280282,0.02539 0.423829,0.02539 H 94.4453 c 0.143552,0 0.2854,-0.0091 0.423829,-0.02539 0.138428,-0.01628 0.273737,-0.03877 0.40625,-0.07031 0.132513,-0.03155 0.260914,-0.07138 0.386718,-0.117188 0.125805,-0.04581 0.248885,-0.09914 0.367188,-0.158203 0.118302,-0.05906 0.231789,-0.124001 0.341797,-0.195312 0.110007,-0.07131 0.215487,-0.147917 0.316406,-0.230469 0.100919,-0.08255 0.198027,-0.170887 0.289062,-0.263672 0.09104,-0.09278 0.177451,-0.190957 0.257813,-0.292969 0.08036,-0.102011 0.153763,-0.208129 0.222656,-0.318359 0.06889,-0.11023 0.132822,-0.224355 0.189453,-0.341797 0.05663,-0.117442 0.106815,-0.237681 0.150391,-0.361328 0.04358,-0.123647 0.07965,-0.250062 0.109375,-0.378906 0.02973,-0.128845 0.05327,-0.259544 0.06836,-0.392578 0.01509,-0.133035 0.02183,-0.268079 0.02148,-0.404297 -3.5e-4,-0.136218 -0.0088,-0.273716 -0.02539,-0.41211 -0.01658,-0.138393 -0.04062,-0.278406 -0.07422,-0.417968 l -1.990218,-8.27343 c -0.02071,-0.086 -0.0447,-0.17122 -0.07227,-0.253906 -0.02757,-0.08269 -0.05967,-0.163088 -0.09375,-0.242188 -0.03408,-0.0791 -0.07109,-0.15523 -0.111328,-0.230468 -0.04024,-0.07524 -0.08286,-0.149603 -0.128906,-0.220703 -0.04605,-0.0711 -0.09498,-0.140342 -0.146484,-0.207032 -0.05151,-0.06669 -0.105491,-0.131356 -0.16211,-0.193359 -0.05662,-0.062 -0.116356,-0.120693 -0.177734,-0.177735 -0.06138,-0.05704 -0.123665,-0.112258 -0.189453,-0.164062 -0.06579,-0.0518 -0.135231,-0.100193 -0.205078,-0.146484 -0.06985,-0.04629 -0.141288,-0.09036 -0.214844,-0.13086 -0.07356,-0.0405 -0.147694,-0.07689 -0.224609,-0.111328 -0.07692,-0.03444 -0.156405,-0.06565 -0.236329,-0.09375 -0.07992,-0.0281 -0.161558,-0.05468 -0.24414,-0.07617 -0.08258,-0.02149 -0.16511,-0.03813 -0.25,-0.05273 -0.08489,-0.0146 -0.170964,-0.02576 -0.257813,-0.0332 C 93.104558,40.50428 93.016191,40.5 92.927734,40.5 Z m 0,1.5 h 9.855468 c 0.09026,0 0.179004,0.0085 0.265625,0.02344 0.08662,0.01491 0.170404,0.03575 0.251953,0.06445 0.08155,0.0287 0.161277,0.06411 0.236329,0.105468 0.07505,0.04136 0.145766,0.08969 0.21289,0.142579 0.06712,0.05289 0.129733,0.110531 0.1875,0.173828 0.05777,0.0633 0.111221,0.132503 0.158203,0.205078 0.04698,0.07258 0.08828,0.147789 0.123047,0.228515 0.03477,0.08073 0.06286,0.166155 0.08398,0.253907 l 1.992187,8.273437 c 0.0194,0.08059 0.03341,0.160323 0.04297,0.240235 0.0096,0.07991 0.01544,0.159629 0.01563,0.238281 1.83e-4,0.07865 -0.0049,0.157563 -0.01367,0.234375 -0.0087,0.07681 -0.02187,0.152172 -0.03906,0.226562 -0.0172,0.07439 -0.03926,0.147362 -0.06445,0.21875 -0.0252,0.07139 -0.0532,0.14118 -0.08594,0.208985 -0.03274,0.0678 -0.06955,0.133625 -0.109375,0.197265 -0.03982,0.06364 -0.08246,0.1247 -0.128906,0.183594 -0.04644,0.05889 -0.09583,0.116356 -0.148438,0.169922 -0.05261,0.05357 -0.109657,0.102733 -0.167969,0.15039 -0.05831,0.04766 -0.118083,0.0936 -0.18164,0.134766 -0.06356,0.04117 -0.130876,0.07723 -0.199219,0.111328 -0.06834,0.0341 -0.138268,0.06535 -0.210937,0.0918 -0.07267,0.02645 -0.148073,0.04819 -0.22461,0.06641 -0.07654,0.01821 -0.15443,0.03357 -0.234375,0.04297 C 94.609508,53.995724 94.528206,54 94.445312,54 H 81.554688 c -0.08289,0 -0.164196,-0.0043 -0.244141,-0.01367 -0.07994,-0.0094 -0.157838,-0.02476 -0.234375,-0.04297 -0.07654,-0.01821 -0.151939,-0.03996 -0.22461,-0.06641 -0.07267,-0.02644 -0.142594,-0.0577 -0.210937,-0.0918 -0.06834,-0.0341 -0.135661,-0.07016 -0.199219,-0.111328 -0.06356,-0.04117 -0.123328,-0.08711 -0.18164,-0.134766 -0.05831,-0.04766 -0.115361,-0.09682 -0.167969,-0.15039 -0.05261,-0.05357 -0.101994,-0.111028 -0.148438,-0.169922 -0.04644,-0.05889 -0.08908,-0.119954 -0.128906,-0.183594 -0.03982,-0.06364 -0.07664,-0.129461 -0.109375,-0.197265 -0.03274,-0.0678 -0.06074,-0.137597 -0.08594,-0.208985 -0.0252,-0.07139 -0.04726,-0.144359 -0.06445,-0.21875 -0.0172,-0.07439 -0.03033,-0.149751 -0.03906,-0.226562 -0.0087,-0.07681 -0.01386,-0.155724 -0.01367,-0.234375 1.85e-4,-0.07865 0.0061,-0.158372 0.01563,-0.238281 0.0096,-0.07991 0.02357,-0.159647 0.04297,-0.240235 l 1.992187,-8.273437 c 0.02112,-0.08775 0.04922,-0.17318 0.08398,-0.253907 0.03477,-0.08073 0.07606,-0.15594 0.123047,-0.228515 0.04698,-0.07258 0.100434,-0.141782 0.158203,-0.205078 0.05777,-0.0633 0.120375,-0.120937 0.1875,-0.173828 0.06713,-0.05289 0.137838,-0.10122 0.21289,-0.142579 0.07505,-0.04136 0.154777,-0.07677 0.236329,-0.105468 0.08155,-0.0287 0.165334,-0.04954 0.251953,-0.06445 C 82.89326,42.008524 82.982007,42 83.072266,42 Z M 82.75,56.5 c -0.05178,0 -0.101567,0.0056 -0.150391,0.01563 -0.04882,0.01 -0.09576,0.02399 -0.140625,0.04297 -0.04486,0.01898 -0.08901,0.04336 -0.128906,0.07031 -0.0399,0.02696 -0.0774,0.05591 -0.111328,0.08984 -0.03393,0.03393 -0.06289,0.07143 -0.08984,0.111328 -0.02696,0.0399 -0.05134,0.08404 -0.07031,0.128906 -0.01898,0.04486 -0.03298,0.0918 -0.04297,0.140625 C 82.005634,57.148432 82,57.198225 82,57.25 c 0,0.05177 0.0056,0.101568 0.01563,0.150391 0.01,0.04882 0.02399,0.09576 0.04297,0.140625 0.01898,0.04486 0.04336,0.08901 0.07031,0.128906 0.02696,0.0399 0.05591,0.0774 0.08984,0.111328 0.03393,0.03393 0.07143,0.06289 0.111328,0.08984 0.0399,0.02696 0.08404,0.05134 0.128906,0.07031 0.04487,0.01898 0.0918,0.03298 0.140625,0.04297 C 82.648433,57.994366 82.698222,58 82.75,58 h 10.5 c 0.05178,0 0.101568,-0.0056 0.150391,-0.01563 0.04882,-0.01 0.09576,-0.02399 0.140625,-0.04297 0.04486,-0.01898 0.08901,-0.04336 0.128906,-0.07031 0.0399,-0.02696 0.0774,-0.05591 0.111328,-0.08984 0.03393,-0.03393 0.06289,-0.07143 0.08984,-0.111328 0.02696,-0.0399 0.05134,-0.08404 0.07031,-0.128906 0.01898,-0.04486 0.03298,-0.0918 0.04297,-0.140625 C 93.994366,57.351568 94,57.301775 94,57.25 c 0,-0.05177 -0.0056,-0.101568 -0.01563,-0.150391 -0.01,-0.04882 -0.02399,-0.09576 -0.04297,-0.140625 -0.01898,-0.04486 -0.04336,-0.08901 -0.07031,-0.128906 -0.02696,-0.0399 -0.05591,-0.0774 -0.08984,-0.111328 -0.03393,-0.03393 -0.07143,-0.06289 -0.111328,-0.08984 -0.0399,-0.02696 -0.08404,-0.05134 -0.128906,-0.07031 -0.04486,-0.01898 -0.0918,-0.03298 -0.140625,-0.04297 C 93.351568,56.505634 93.301775,56.5 93.25,56.5 Z" />
      <path
         id="path127950"
         style="opacity:0.3;fill:#1dc0ea;fill-opacity:1;fill-rule:evenodd;stroke-width:0.1;stroke-linecap:round;stroke-linejoin:round;paint-order:stroke fill markers"
         d="m 83.072266,42 c -0.09026,0 -0.179006,0.0085 -0.265625,0.02344 -0.08662,0.01491 -0.170403,0.03575 -0.251953,0.06445 -0.08155,0.0287 -0.161277,0.06411 -0.236329,0.105468 -0.07505,0.04136 -0.145765,0.08969 -0.21289,0.142579 -0.06713,0.05289 -0.129732,0.110531 -0.1875,0.173828 -0.05777,0.0633 -0.11122,0.132503 -0.158203,0.205078 -0.04698,0.07258 -0.08828,0.147789 -0.123047,0.228515 -0.03477,0.08073 -0.06286,0.166155 -0.08398,0.253907 l -1.992187,8.273437 c -0.0194,0.08059 -0.03341,0.160324 -0.04297,0.240235 -0.0096,0.07991 -0.01544,0.159629 -0.01563,0.238281 -1.84e-4,0.07865 0.0049,0.157563 0.01367,0.234375 0.0087,0.07681 0.02187,0.152172 0.03906,0.226562 0.0172,0.07439 0.03926,0.147362 0.06445,0.21875 0.0252,0.07139 0.0532,0.14118 0.08594,0.208985 0.03274,0.0678 0.06955,0.133625 0.109375,0.197265 0.03982,0.06364 0.08246,0.1247 0.128906,0.183594 0.04644,0.05889 0.09583,0.116356 0.148438,0.169922 0.05261,0.05357 0.109656,0.102733 0.167969,0.15039 0.05831,0.04766 0.118083,0.0936 0.18164,0.134766 0.06356,0.04117 0.130876,0.07723 0.199219,0.111328 0.06834,0.0341 0.138268,0.06535 0.210937,0.0918 0.07267,0.02645 0.148073,0.04819 0.22461,0.06641 0.07654,0.01821 0.15443,0.03357 0.234375,0.04297 C 81.390492,53.995724 81.471794,54 81.554688,54 h 12.890624 c 0.08289,0 0.164196,-0.0043 0.244141,-0.01367 0.07994,-0.0094 0.157838,-0.02476 0.234375,-0.04297 0.07654,-0.01821 0.15194,-0.03996 0.22461,-0.06641 0.07267,-0.02644 0.142594,-0.0577 0.210937,-0.0918 0.06834,-0.0341 0.135662,-0.07016 0.199219,-0.111328 0.06356,-0.04117 0.123329,-0.08711 0.18164,-0.134766 0.05831,-0.04766 0.115362,-0.09682 0.167969,-0.15039 0.05261,-0.05357 0.101994,-0.111028 0.148438,-0.169922 0.04644,-0.05889 0.08908,-0.119954 0.128906,-0.183594 0.03982,-0.06364 0.07664,-0.129461 0.109375,-0.197265 0.03274,-0.0678 0.06074,-0.137597 0.08594,-0.208985 0.0252,-0.07139 0.04726,-0.144359 0.06445,-0.21875 0.0172,-0.07439 0.03033,-0.149751 0.03906,-0.226562 0.0087,-0.07681 0.01386,-0.155724 0.01367,-0.234375 -1.84e-4,-0.07865 -0.0061,-0.158371 -0.01563,-0.238281 -0.0096,-0.07991 -0.02357,-0.159647 -0.04297,-0.240235 L 94.447255,43.19726 c -0.02112,-0.08775 -0.04922,-0.17318 -0.08398,-0.253907 -0.03477,-0.08073 -0.07606,-0.15594 -0.123047,-0.228515 -0.04698,-0.07258 -0.100435,-0.141782 -0.158203,-0.205078 -0.05777,-0.0633 -0.120376,-0.120937 -0.1875,-0.173828 -0.06712,-0.05289 -0.137839,-0.10122 -0.21289,-0.142579 -0.07505,-0.04136 -0.154778,-0.07677 -0.236329,-0.105468 -0.08155,-0.0287 -0.165332,-0.04954 -0.251953,-0.06445 C 93.106738,42.008524 93.017997,42 92.927734,42 Z" />
    </g>
    <rect
       height="22"
       width="22"
       x="-74.996101"
       transform="scale(-1,1)"
       id="rect893"
       y="37.983051"
       style="color:#bebebe;opacity:0;stroke-width:2" />
  </g>
  <g
     id="16-16-computer-laptop"
     transform="translate(-0.00287742,0.00847626)">
    <g
       id="g143528"
       transform="matrix(1.0007202,0,0,1,-19.056902,-0.00849726)">
      <path
         id="rect138457"
         style="opacity:1;fill:#1dc0ea;fill-opacity:1;fill-rule:evenodd;stroke-width:0.1;stroke-linecap:round;stroke-linejoin:round;paint-order:stroke fill markers"
         d="m 79.095703,67 c -0.07295,0 -0.145206,0.0036 -0.216797,0.0098 -0.07159,0.0062 -0.142953,0.0152 -0.21289,0.02734 -0.06994,0.01215 -0.13904,0.02705 -0.207032,0.04492 -0.06799,0.01787 -0.135415,0.03914 -0.201172,0.0625 -0.06575,0.02336 -0.130132,0.0495 -0.193359,0.07813 -0.06323,0.02862 -0.12514,0.05815 -0.185547,0.0918 -0.06041,0.03365 -0.118486,0.07093 -0.175781,0.109375 -0.05729,0.03844 -0.112124,0.07809 -0.166016,0.121094 -0.05389,0.04301 -0.106053,0.08938 -0.15625,0.136719 -0.0502,0.04734 -0.09832,0.097 -0.144531,0.148437 -0.04621,0.05143 -0.09088,0.104857 -0.132812,0.160156 -0.04193,0.0553 -0.08178,0.112944 -0.119141,0.171875 -0.03736,0.05893 -0.07297,0.119309 -0.105469,0.181641 -0.0325,0.06233 -0.06249,0.125906 -0.08984,0.191406 -0.02735,0.0655 -0.05231,0.132737 -0.07422,0.201172 -0.0219,0.06844 -0.04047,0.137846 -0.05664,0.208984 l -1.589844,7 c -0.02222,0.09778 -0.03839,0.196114 -0.04883,0.292969 -0.01043,0.09686 -0.01448,0.191872 -0.01367,0.28711 8.06e-4,0.09524 0.0061,0.190274 0.01758,0.283203 0.01149,0.09293 0.02915,0.183509 0.05078,0.273437 0.02163,0.08993 0.04691,0.179389 0.07813,0.265625 0.03121,0.08624 0.06718,0.1701 0.107422,0.251953 0.04025,0.08185 0.08604,0.161502 0.134765,0.238282 0.04873,0.07678 0.101543,0.149689 0.158203,0.220703 0.05666,0.07101 0.115648,0.140521 0.179688,0.205078 0.06404,0.06456 0.132256,0.124233 0.203125,0.18164 0.07087,0.05741 0.145509,0.112541 0.222656,0.16211 0.07715,0.04957 0.15736,0.09373 0.240235,0.134766 0.08287,0.04104 0.16781,0.07756 0.255859,0.109374 0.08805,0.03182 0.178811,0.06013 0.271484,0.08203 0.09267,0.0219 0.18841,0.03753 0.285157,0.04883 C 77.307683,78.993718 77.405591,79 77.505859,79 h 10.988282 c 0.100268,0 0.198175,-0.0063 0.294921,-0.01758 0.09675,-0.0113 0.192484,-0.02693 0.285157,-0.04883 0.09267,-0.0219 0.183436,-0.05022 0.271484,-0.08203 0.08805,-0.03181 0.172988,-0.06834 0.255859,-0.109374 0.08287,-0.04104 0.163089,-0.0852 0.240235,-0.134766 0.07715,-0.04957 0.151788,-0.104701 0.222656,-0.16211 0.07087,-0.05741 0.139086,-0.117083 0.203125,-0.18164 0.06404,-0.06456 0.123028,-0.134065 0.179688,-0.205078 0.05666,-0.07101 0.109474,-0.143924 0.158203,-0.220703 0.04873,-0.07678 0.09452,-0.156428 0.134765,-0.238282 0.04025,-0.08185 0.07621,-0.165716 0.107422,-0.251953 0.03121,-0.08624 0.0565,-0.175697 0.07813,-0.265625 0.02163,-0.08993 0.03929,-0.180509 0.05078,-0.273437 0.01149,-0.09293 0.01677,-0.187966 0.01758,-0.283203 8.07e-4,-0.09524 -0.0032,-0.190255 -0.01367,-0.28711 -0.01043,-0.09686 -0.02661,-0.195187 -0.04883,-0.292969 l -1.589844,-7 c -0.01617,-0.07114 -0.03474,-0.140548 -0.05664,-0.208984 -0.0219,-0.06843 -0.04687,-0.135672 -0.07422,-0.201172 -0.02735,-0.0655 -0.05734,-0.129074 -0.08984,-0.191406 -0.0325,-0.06233 -0.06811,-0.122709 -0.105469,-0.181641 -0.03736,-0.05893 -0.07721,-0.116576 -0.119141,-0.171875 -0.04193,-0.0553 -0.08465,-0.108722 -0.130859,-0.160156 -0.04621,-0.05143 -0.09629,-0.101101 -0.146484,-0.148437 -0.0502,-0.04734 -0.10236,-0.09371 -0.15625,-0.136719 -0.05389,-0.04301 -0.108722,-0.08265 -0.166016,-0.121094 -0.05729,-0.03844 -0.115375,-0.07573 -0.175781,-0.109375 -0.06041,-0.03365 -0.122321,-0.06318 -0.185547,-0.0918 -0.06323,-0.02862 -0.127604,-0.05476 -0.193359,-0.07813 -0.06576,-0.02336 -0.133179,-0.04463 -0.201172,-0.0625 -0.06799,-0.01787 -0.137093,-0.03278 -0.207032,-0.04492 -0.06994,-0.01215 -0.141297,-0.02115 -0.21289,-0.02734 C 87.0495,67.003576 86.977253,67 86.904297,67 Z m 0,1 h 7.808594 c 0.04377,0 0.08791,0.0021 0.130859,0.0059 0.04295,0.0037 0.08501,0.0083 0.126953,0.01563 0.08389,0.0146 0.165306,0.03638 0.244141,0.06445 0.07883,0.02807 0.154167,0.06309 0.226562,0.103515 0.0724,0.04042 0.142461,0.08701 0.207032,0.138672 0.06457,0.05166 0.124328,0.108155 0.179687,0.169922 0.05536,0.06177 0.105631,0.128464 0.150391,0.199219 0.04476,0.07075 0.08441,0.145988 0.117187,0.224609 0.01639,0.03931 0.02984,0.08003 0.04297,0.121094 0.01313,0.04107 0.02546,0.08232 0.03516,0.125 l 1.591797,7 c 0.01333,0.05866 0.02304,0.117678 0.0293,0.175781 0.0063,0.0581 0.0083,0.114747 0.0078,0.171875 -4.91e-4,0.05713 -0.0029,0.114182 -0.0098,0.169922 -0.0069,0.05574 -0.01826,0.110125 -0.03125,0.164062 -0.01299,0.05394 -0.02814,0.106483 -0.04687,0.158203 -0.01874,0.05172 -0.04029,0.103254 -0.06445,0.152344 -0.02416,0.04909 -0.05083,0.09653 -0.08008,0.142578 -0.02925,0.04604 -0.06169,0.09023 -0.0957,0.132813 -0.03401,0.04259 -0.06899,0.08433 -0.107422,0.123047 -0.03844,0.03871 -0.08051,0.07495 -0.123047,0.109375 -0.04253,0.03442 -0.08652,0.06598 -0.132813,0.0957 -0.0463,0.02972 -0.0948,0.05742 -0.144531,0.08203 -0.04973,0.02461 -0.101462,0.04733 -0.154297,0.06641 -0.05283,0.01908 -0.106503,0.03374 -0.162109,0.04687 -0.05561,0.01313 -0.111875,0.02448 -0.169922,0.03125 C 88.613828,77.997007 88.554297,78 88.494141,78 H 77.505859 c -0.06016,0 -0.119683,-0.003 -0.177734,-0.0098 -0.05805,-0.0068 -0.114312,-0.01812 -0.169922,-0.03125 -0.05561,-0.01313 -0.109272,-0.0278 -0.162109,-0.04687 -0.05284,-0.01908 -0.104564,-0.0418 -0.154297,-0.06641 -0.04973,-0.02461 -0.09823,-0.05231 -0.144531,-0.08203 -0.0463,-0.02972 -0.09028,-0.06128 -0.132813,-0.0957 -0.04253,-0.03442 -0.08461,-0.07066 -0.123047,-0.109375 -0.03844,-0.03871 -0.07341,-0.08046 -0.107422,-0.123047 -0.03401,-0.04259 -0.06645,-0.08677 -0.0957,-0.132813 -0.02925,-0.04604 -0.05592,-0.09349 -0.08008,-0.142578 -0.02416,-0.04909 -0.04572,-0.100622 -0.06445,-0.152344 -0.01874,-0.05172 -0.03389,-0.104265 -0.04687,-0.158203 -0.01299,-0.05394 -0.02435,-0.108322 -0.03125,-0.164062 -0.0069,-0.05574 -0.0093,-0.112794 -0.0098,-0.169922 -4.88e-4,-0.05713 0.0016,-0.113772 0.0078,-0.171875 0.0063,-0.0581 0.01596,-0.117119 0.0293,-0.175781 l 1.589843,-7 c 0.0097,-0.04268 0.02201,-0.08393 0.03516,-0.125 0.01314,-0.04107 0.02655,-0.08178 0.04297,-0.121094 0.03283,-0.07862 0.07233,-0.153855 0.117187,-0.224609 0.04485,-0.07076 0.09492,-0.137453 0.150391,-0.199219 0.05548,-0.06177 0.116946,-0.118265 0.18164,-0.169922 0.0647,-0.05166 0.132567,-0.09825 0.205078,-0.138672 0.07251,-0.04042 0.149591,-0.07545 0.228516,-0.103515 0.07892,-0.02807 0.160205,-0.04986 0.244141,-0.06445 0.04197,-0.0073 0.084,-0.0119 0.126953,-0.01563 C 79.007801,68.00214 79.051931,68 79.095703,68 Z M 78.5,80 c -0.03452,0 -0.06901,0.0031 -0.101562,0.0098 -0.03255,0.0067 -0.06384,0.01664 -0.09375,0.0293 -0.02991,0.01265 -0.05738,0.0289 -0.08398,0.04688 -0.0266,0.01797 -0.0516,0.03793 -0.07422,0.06055 -0.02262,0.02262 -0.04258,0.04762 -0.06055,0.07422 -0.01797,0.0266 -0.03422,0.05407 -0.04688,0.08398 -0.01265,0.02991 -0.02264,0.0612 -0.0293,0.09375 C 78.003105,80.430982 78,80.465487 78,80.5 c 0,0.03451 0.0031,0.06902 0.0098,0.101562 0.0067,0.03255 0.01665,0.06384 0.0293,0.09375 0.01265,0.02991 0.0289,0.05738 0.04688,0.08398 0.01797,0.0266 0.03793,0.0516 0.06055,0.07422 0.02262,0.02262 0.04762,0.04257 0.07422,0.06055 0.0266,0.01797 0.05407,0.03422 0.08398,0.04688 0.02991,0.01265 0.0612,0.02264 0.09375,0.0293 0.03251,0.0067 0.067,0.0098 0.10152,0.0098 h 9 c 0.03451,0 0.06902,-0.0031 0.101562,-0.0098 0.03255,-0.0067 0.06384,-0.01664 0.09375,-0.0293 0.02991,-0.01265 0.05738,-0.0289 0.08398,-0.04688 0.0266,-0.01797 0.0516,-0.03793 0.07422,-0.06055 0.02262,-0.02262 0.04257,-0.04762 0.06055,-0.07422 0.01797,-0.0266 0.03422,-0.05407 0.04688,-0.08398 0.01265,-0.02991 0.02264,-0.0612 0.0293,-0.09375 C 87.996896,80.569018 88,80.534513 88,80.5 c 0,-0.03451 -0.0031,-0.06902 -0.0098,-0.101562 -0.0067,-0.03255 -0.01664,-0.06384 -0.0293,-0.09375 -0.01265,-0.02991 -0.0289,-0.05738 -0.04688,-0.08398 -0.01797,-0.0266 -0.03793,-0.0516 -0.06055,-0.07422 -0.02262,-0.02262 -0.04762,-0.04257 -0.07422,-0.06055 -0.0266,-0.01797 -0.05407,-0.03422 -0.08398,-0.04688 -0.02991,-0.01265 -0.0612,-0.02264 -0.09375,-0.0293 C 87.569018,80.003104 87.534513,80 87.5,80 Z" />
      <path
         id="path138543"
         style="opacity:0.3;fill:#1dc0ea;fill-opacity:1;fill-rule:evenodd;stroke-width:0.1;stroke-linecap:round;stroke-linejoin:round;paint-order:stroke fill markers"
         d="m 79.095703,68 c -0.04377,0 -0.0879,0.0021 -0.130859,0.0059 -0.04296,0.0037 -0.08499,0.0083 -0.126953,0.01563 -0.08394,0.0146 -0.165216,0.03638 -0.244141,0.06445 -0.07892,0.02807 -0.156005,0.06309 -0.228516,0.103515 -0.07251,0.04042 -0.140383,0.08701 -0.205078,0.138672 -0.06469,0.05166 -0.126165,0.108155 -0.18164,0.169922 -0.05548,0.06177 -0.105538,0.128464 -0.150391,0.199219 -0.04485,0.07075 -0.08436,0.145988 -0.117187,0.224609 -0.01641,0.03931 -0.02982,0.08003 -0.04297,0.121094 -0.01314,0.04107 -0.02546,0.08232 -0.03516,0.125 l -1.589843,7 c -0.01333,0.05866 -0.02304,0.117678 -0.0293,0.175781 -0.0063,0.0581 -0.0083,0.114747 -0.0078,0.171875 4.89e-4,0.05713 0.0029,0.114182 0.0098,0.169922 0.0069,0.05574 0.01826,0.110125 0.03125,0.164062 0.01299,0.05394 0.02814,0.106483 0.04687,0.158203 0.01874,0.05172 0.04029,0.103254 0.06445,0.152344 0.02416,0.04909 0.05083,0.09653 0.08008,0.142578 0.02925,0.04604 0.0617,0.09023 0.0957,0.132813 0.03401,0.04259 0.06899,0.08433 0.107422,0.123047 0.03844,0.03871 0.08051,0.07495 0.123047,0.109375 0.04253,0.03442 0.08651,0.06598 0.132813,0.0957 0.0463,0.02972 0.0948,0.05742 0.144531,0.08203 0.04973,0.02461 0.10146,0.04733 0.154297,0.06641 0.05284,0.01908 0.1065,0.03374 0.162109,0.04687 0.05561,0.01313 0.111871,0.02448 0.169922,0.03125 0.05805,0.0068 0.117573,0.0098 0.177734,0.0098 h 10.988282 c 0.06016,0 0.119687,-0.003 0.177734,-0.0098 0.05805,-0.0068 0.114316,-0.01812 0.169922,-0.03125 0.05561,-0.01313 0.109275,-0.0278 0.162109,-0.04687 0.05284,-0.01908 0.104565,-0.0418 0.154297,-0.06641 0.04973,-0.02461 0.09823,-0.05231 0.144531,-0.08203 0.0463,-0.02972 0.09028,-0.06128 0.132813,-0.0957 0.04253,-0.03442 0.08461,-0.07066 0.123047,-0.109375 0.03844,-0.03871 0.07341,-0.08046 0.107422,-0.123047 0.03401,-0.04259 0.06645,-0.08677 0.0957,-0.132813 0.02925,-0.04604 0.05592,-0.09349 0.08008,-0.142578 0.02416,-0.04909 0.04571,-0.100623 0.06445,-0.152344 0.01874,-0.05172 0.03389,-0.104265 0.04687,-0.158203 0.01299,-0.05394 0.02434,-0.108322 0.03125,-0.164062 0.0069,-0.05574 0.0093,-0.112794 0.0098,-0.169922 4.9e-4,-0.05713 -0.0016,-0.113772 -0.0078,-0.171875 -0.0063,-0.0581 -0.01597,-0.117119 -0.0293,-0.175781 l -1.591797,-7 c -0.0097,-0.04268 -0.02203,-0.08393 -0.03516,-0.125 -0.01313,-0.04107 -0.02658,-0.08178 -0.04297,-0.121094 -0.03277,-0.07862 -0.07243,-0.153855 -0.117187,-0.224609 -0.04476,-0.07076 -0.09503,-0.137453 -0.150391,-0.199219 -0.05536,-0.06177 -0.115116,-0.118265 -0.179687,-0.169922 -0.06457,-0.05166 -0.134635,-0.09825 -0.207032,-0.138672 -0.0724,-0.04042 -0.147727,-0.07544 -0.226562,-0.103515 -0.07883,-0.02807 -0.160255,-0.04986 -0.244141,-0.06445 -0.04194,-0.0073 -0.08401,-0.0119 -0.126953,-0.01563 C 86.992211,68.00214 86.948072,68 86.904297,68 Z" />
    </g>
    <rect
       height="16"
       width="16"
       y="65.991524"
       x="-72.002876"
       transform="scale(-1,1)"
       id="rect922"
       style="color:#bebebe;fill:none" />
    <rect
       height="16"
       width="16"
       y="65.991524"
       x="-72.002876"
       transform="scale(-1,1)"
       id="rect924"
       style="color:#bebebe;opacity:0;stroke-width:3" />
  </g>
  <g
     id="computer"
     transform="translate(-48)">
    <rect
       x="48"
       y="-1.4901161e-06"
       width="32"
       height="32"
       rx="0"
       ry="0"
       style="opacity:0;stroke-width:2;paint-order:fill markers stroke"
       id="rect993" />
    <g
       id="g6124"
       transform="translate(85,0.99999851)">
      <path
         id="rect5736"
         style="opacity:1;fill:#1dc0ea;fill-opacity:1;fill-rule:evenodd;stroke-width:0.1;stroke-linecap:round;stroke-linejoin:round;paint-order:stroke fill markers"
         d="M -31.75,2 C -33.54493,2 -35,3.455 -35,5.25 v 15.5 c 0,1.795 1.45507,3.25 3.25,3.25 h 6.759766 v 2.001953 h -2.998047 c -0.55229,0 -1,0.448 -1,1 10e-6,0.552 0.44772,0.998047 1,0.998047 h 13.992187 c 0.5522,0 1,-0.447047 1,-0.998047 0,-0.552 -0.4477,-1 -1,-1 h -2.998047 V 24 H -10.25 C -8.4551,24 -7,22.545 -7,20.75 V 5.25 C -7,3.455 -8.4551,2 -10.25,2 Z m 0,2 h 21.5 C -9.5596,4 -9,4.56 -9,5.25 v 15.5 C -9,21.44 -9.5596,22 -10.25,22 h -21.5 C -32.44036,22 -33,21.44 -33,20.75 V 5.25 C -33,4.56 -32.44036,4 -31.75,4 Z m 8.759766,20 h 3.996093 v 2.001953 h -3.996093 z" />
      <rect
         style="opacity:0.3;fill:#1dc0ea;fill-opacity:1;fill-rule:evenodd;stroke-width:0.1;stroke-linecap:round;stroke-linejoin:round;paint-order:stroke fill markers"
         id="rect6003"
         width="24"
         height="18"
         x="-33"
         y="4"
         ry="1" />
    </g>
  </g>
  <g
     id="computer-laptop"
     transform="translate(2)">
    <g
       id="g6130"
       transform="translate(-32.999436)">
      <path
         id="path6126"
         style="opacity:0.3;fill:#1dc0ea;fill-opacity:1;fill-rule:evenodd;stroke-width:0.1;stroke-linecap:round;stroke-linejoin:round;paint-order:stroke fill markers"
         d="m 90.47155,6 c -0.126351,0 -0.251484,0.010902 -0.373047,0.03125 -0.121563,0.020348 -0.240631,0.050614 -0.355468,0.089844 -0.114838,0.03923 -0.225855,0.087885 -0.332032,0.144531 -0.106176,0.056646 -0.207156,0.120764 -0.302734,0.193359 -0.09558,0.072595 -0.184535,0.153157 -0.267578,0.240235 -0.08304,0.087078 -0.159945,0.181155 -0.228516,0.28125 -0.06857,0.100095 -0.129478,0.206714 -0.18164,0.318359 -0.05216,0.111646 -0.09509,0.22788 -0.128907,0.34961 l -3.21875,11.58789 c -0.02412,0.08682 -0.04345,0.173393 -0.05664,0.259766 -0.01319,0.08637 -0.02068,0.172549 -0.02344,0.257812 -0.0028,0.08526 -0.0013,0.170417 0.0059,0.253906 0.0072,0.08349 0.02054,0.165042 0.03711,0.246094 0.01657,0.08105 0.03702,0.160331 0.0625,0.238282 0.02548,0.07795 0.05596,0.154331 0.08984,0.228515 0.03388,0.07418 0.0715,0.147043 0.113281,0.216797 0.04178,0.06975 0.08754,0.136512 0.136719,0.201172 0.04918,0.06466 0.102141,0.126645 0.158203,0.185547 0.05606,0.0589 0.115291,0.115489 0.177734,0.167969 0.06244,0.05248 0.126994,0.101091 0.195313,0.146484 0.06832,0.04539 0.139202,0.08736 0.21289,0.125 0.07369,0.03764 0.149963,0.07038 0.228516,0.09961 0.07855,0.02923 0.159275,0.05407 0.242187,0.07422 0.08291,0.02015 0.169094,0.03647 0.25586,0.04687 C 87.005581,21.994782 87.094328,22 87.184441,22 h 19.632809 c 0.0901,0 0.17886,-0.0052 0.26562,-0.01563 0.0868,-0.01041 0.171,-0.02673 0.25391,-0.04687 0.0829,-0.02015 0.16363,-0.04499 0.24218,-0.07422 0.0786,-0.02923 0.15483,-0.06197 0.22852,-0.09961 0.0737,-0.03764 0.14457,-0.07961 0.21289,-0.125 0.0683,-0.04539 0.13482,-0.094 0.19727,-0.146484 0.0624,-0.05248 0.12167,-0.109067 0.17773,-0.167969 0.0561,-0.0589 0.10903,-0.120887 0.1582,-0.185547 0.0492,-0.06466 0.0949,-0.131418 0.13672,-0.201172 0.0418,-0.06975 0.0794,-0.142613 0.11328,-0.216797 0.0339,-0.07418 0.0624,-0.150565 0.0879,-0.228515 0.0255,-0.07795 0.0479,-0.15723 0.0645,-0.238282 0.0166,-0.08105 0.028,-0.162604 0.0352,-0.246094 0.007,-0.08349 0.009,-0.168642 0.006,-0.253906 -0.003,-0.08526 -0.0102,-0.171439 -0.0234,-0.257812 -0.0132,-0.08637 -0.0306,-0.172947 -0.0547,-0.259766 l -3.21875,-11.58789 c -0.0338,-0.12173 -0.0787,-0.237964 -0.13086,-0.34961 -0.0521,-0.111645 -0.11121,-0.218264 -0.17969,-0.318359 -0.0685,-0.100095 -0.14558,-0.194172 -0.22851,-0.28125 -0.0829,-0.087078 -0.17212,-0.16764 -0.26758,-0.240235 -0.0955,-0.072595 -0.19667,-0.136713 -0.30274,-0.193359 -0.10606,-0.056646 -0.21728,-0.105301 -0.33203,-0.144531 -0.11475,-0.03923 -0.23396,-0.069496 -0.35547,-0.089844 C 103.78167,6.010902 103.65844,6 103.53209,6 Z" />
      <path
         id="path6128"
         style="opacity:1;fill:#1dc0ea;fill-opacity:1;fill-rule:evenodd;stroke-width:0.1;stroke-linecap:round;stroke-linejoin:round;paint-order:stroke fill markers"
         d="m 90.470142,4 c -1.90931,0 -3.584693,1.2737913 -4.095703,3.1132813 L 83.153736,18.701172 C 82.413816,21.364672 84.418453,24 87.183033,24 h 19.632817 c 2.7646,0 4.76919,-2.635328 4.02929,-5.298828 L 107.62444,7.1132813 C 107.11334,5.2738013 105.43999,4 103.53069,4 Z m 0,2 h 13.060548 c 1.0108,0 1.89747,0.6745976 2.16797,1.6484376 l 3.21875,11.5878904 C 109.30331,20.625428 108.25765,22 106.81585,22 H 87.183033 c -1.44181,0 -2.487452,-1.374572 -2.101562,-2.763672 L 88.300221,7.6484376 C 88.570761,6.6745975 89.459333,6 90.470142,6 Z m -1.470703,20 c -0.55233,0 -1,0.4477 -1,1 0,0.5523 0.44767,1 1,1 h 16.000001 c 0.5523,0 1,-0.4477 1,-1 0,-0.5523 -0.4477,-1 -1,-1 z" />
    </g>
    <rect
       x="48"
       y="-1.4901161e-06"
       width="32"
       height="32"
       rx="0"
       ry="0"
       style="opacity:0;stroke-width:2;paint-order:fill markers stroke"
       id="rect6132" />
  </g>
</svg>
