<?xml version="1.0" encoding="UTF-8" standalone="no"?>
<svg
   id="svg"
   inkscape:version="1.1.1 (3bf5ae0d25, 2021-09-20, custom)"
   sodipodi:docname="configure.svg"
   version="1.1"
   viewBox="0 0 32 32"
   width="32"
   height="32"
   xmlns:inkscape="http://www.inkscape.org/namespaces/inkscape"
   xmlns:sodipodi="http://sodipodi.sourceforge.net/DTD/sodipodi-0.dtd"
   xmlns="http://www.w3.org/2000/svg"
   xmlns:svg="http://www.w3.org/2000/svg"
   xmlns:rdf="http://www.w3.org/1999/02/22-rdf-syntax-ns#"
   xmlns:cc="http://creativecommons.org/ns#"
   xmlns:dc="http://purl.org/dc/elements/1.1/">
  <metadata
     id="metadata15">
    <rdf:RDF>
      <cc:Work
         rdf:about="">
        <dc:format>image/svg+xml</dc:format>
        <dc:type
           rdf:resource="http://purl.org/dc/dcmitype/StillImage" />
        <dc:title />
      </cc:Work>
    </rdf:RDF>
  </metadata>
  <sodipodi:namedview
     id="namedview20"
     bordercolor="#666666"
     borderopacity="1"
     gridtolerance="10"
     guidetolerance="10"
     inkscape:current-layer="svg"
     inkscape:cx="-18.654436"
     inkscape:cy="17.797518"
     inkscape:pageopacity="0"
     inkscape:pageshadow="2"
     inkscape:window-height="1005"
     inkscape:window-maximized="1"
     inkscape:window-width="1920"
     inkscape:window-x="0"
     inkscape:window-y="0"
     inkscape:zoom="7.5853272"
     objecttolerance="10"
     pagecolor="#c8c8c8"
     showgrid="true"
     inkscape:pagecheckerboard="0">
    <inkscape:grid
       type="xygrid"
       id="grid846" />
  </sodipodi:namedview>
  <defs
     id="defs3">
    <style
       id="current-color-scheme"
       type="text/css">.ColorScheme-Text { color:#dedede; } .ColorScheme-Highlight { color:#5294e2; } .ColorScheme-ButtonBackground { color:#dedede; }</style>
  </defs>
  <g
     id="configure">
    <path
       id="rect870"
       style="opacity:1;fill:#fbfbfb;fill-rule:evenodd;stroke-width:2;stroke-linecap:round;stroke-linejoin:round;paint-order:stroke fill markers"
       d="m 16.013707,4.00018 c -0.924,0.011 -1.823978,0.1145469 -2.705078,0.3105469 -0.3844,0.086 -0.671143,0.4068281 -0.714843,0.7988281 l -0.208985,1.8789063 c -0.06,0.537 -0.37076,1.0141562 -0.83789,1.2851562 -0.46921,0.2750001 -1.038233,0.3078439 -1.533204,0.089844 L 8.2930036,7.6076019 c -0.35784,-0.158 -0.775838,-0.073109 -1.042968,0.2128906 -1.24334,1.331 -2.170025,2.9269685 -2.708985,4.6679685 -0.11629,0.376 0.017835,0.782625 0.333985,1.015625 l 1.527343,1.125 c 0.43559,0.321 0.691407,0.830094 0.691407,1.371094 0,0.54 -0.256387,1.049141 -0.691407,1.369141 l -1.527343,1.128906 c -0.31568,0.233 -0.449875,0.639625 -0.333985,1.015625 0.53802,1.742 1.463712,3.339875 2.707032,4.671875 0.266869,0.286 0.685068,0.371844 1.042968,0.214844 l 1.7285164,-0.759766 c 0.49258,-0.215 1.0587,-0.182109 1.52539,0.08789 0.46668,0.27 0.778944,0.743297 0.839844,1.279297 l 0.207032,1.876953 c 0.0428,0.388 0.322671,0.706875 0.701171,0.796875 1.7792,0.424 3.634863,0.424 5.414063,0 0.3785,-0.09 0.658272,-0.408875 0.701172,-0.796875 l 0.208984,-1.878907 c 0.0593,-0.536999 0.368838,-1.015156 0.835938,-1.285156 0.4671,-0.271 1.035097,-0.301937 1.529296,-0.08594 l 1.726563,0.759765 c 0.3578,0.157 0.776169,0.07116 1.042969,-0.214843 1.2427,-1.331 2.168231,-2.926969 2.707031,-4.667969 0.1162,-0.375 -0.01808,-0.781625 -0.333984,-1.015625 l -1.525391,-1.126953 c -0.436,-0.321 -0.693359,-0.830094 -0.693359,-1.371094 0,-0.541 0.256406,-1.049141 0.691406,-1.369141 l 1.525391,-1.126953 c 0.3158,-0.233 0.450184,-0.640625 0.333984,-1.015625 -0.5389,-1.741 -1.465584,-3.3360154 -2.708984,-4.6660154 -0.2671,-0.286 -0.685169,-0.3728437 -1.042969,-0.2148437 l -1.720703,0.7578125 c -0.2153,0.095 -0.444735,0.1425781 -0.677735,0.1425781 -0.8668,-10e-4 -1.594853,-0.6545781 -1.689453,-1.5175781 L 19.408239,5.109555 c -0.0436,-0.392 -0.330644,-0.7128281 -0.714844,-0.7988281 -0.88,-0.196 -1.778087,-0.3005469 -2.679688,-0.3105469 z m -0.01367,8 c 2.2091,0 4,1.791 4,4 0,2.209 -1.7909,4 -4,4 -2.2091,0 -4,-1.791 -4,-4 0,-2.209 1.7909,-4 4,-4 z" />
    <path
       style="fill:none"
       inkscape:connector-curvature="0"
       d="M 0,0 V 32 H 32 V 0 Z"
       id="path14-6" />
  </g>
  <g
     id="22-22-configure">
    <path
       id="rect1186"
       style="opacity:1;fill:#fbfbfb;fill-rule:evenodd;stroke-width:2;stroke-linecap:round;stroke-linejoin:round;paint-order:stroke fill markers"
       d="M -11 12.5 C -11.60268 12.5 -12.197154 12.56205 -12.777344 12.685547 C -12.975644 12.727747 -13.129686 12.886536 -13.166016 13.085938 L -13.53125 15.091797 C -13.54095 15.145197 -13.553996 15.196847 -13.572266 15.248047 C -13.758126 15.768047 -14.331483 16.039416 -14.851562 15.853516 L -16.769531 15.167969 C -16.960191 15.099769 -17.172854 15.152529 -17.308594 15.302734 C -18.111294 16.191234 -18.720554 17.240612 -19.089844 18.382812 C -19.152144 18.575412 -19.091844 18.786969 -18.9375 18.917969 L -17.382812 20.238281 C -17.341442 20.273481 -17.302732 20.312111 -17.267578 20.353516 C -16.910108 20.774516 -16.961823 21.404219 -17.382812 21.761719 L -18.9375 23.082031 C -19.09184 23.213031 -19.152144 23.424587 -19.089844 23.617188 C -18.720554 24.759387 -18.111294 25.808766 -17.308594 26.697266 C -17.172854 26.847466 -16.960191 26.900231 -16.769531 26.832031 L -14.851562 26.146484 C -14.800512 26.128184 -14.746789 26.113216 -14.693359 26.103516 C -14.150039 26.004416 -13.63033 26.364803 -13.53125 26.908203 L -13.166016 28.914062 C -13.129686 29.113463 -12.975644 29.272253 -12.777344 29.314453 C -12.19715 29.437955 -11.60268 29.5 -11 29.5 C -10.3977 29.5 -9.8025563 29.43785 -9.2226562 29.314453 C -9.0244563 29.272353 -8.8723375 29.113462 -8.8359375 28.914062 L -8.46875 26.908203 C -8.45905 26.854603 -8.4460344 26.803153 -8.4277344 26.751953 C -8.2419344 26.231953 -7.6685375 25.960584 -7.1484375 26.146484 L -5.2304688 26.832031 C -5.0398688 26.900231 -4.8271062 26.847471 -4.6914062 26.697266 C -3.8887063 25.808766 -3.2794563 24.759387 -2.9101562 23.617188 C -2.8478562 23.424588 -2.908056 23.213031 -3.0625 23.082031 L -4.6171875 21.761719 C -4.6585875 21.726519 -4.6973179 21.687889 -4.7324219 21.646484 C -5.0899219 21.225484 -5.0381875 20.595781 -4.6171875 20.238281 L -3.0625 18.917969 C -2.9081 18.786969 -2.8478562 18.575412 -2.9101562 18.382812 C -3.2794562 17.240613 -3.8887063 16.191234 -4.6914062 15.302734 C -4.8271062 15.152534 -5.0398688 15.099769 -5.2304688 15.167969 L -7.1484375 15.853516 C -7.1995375 15.871816 -7.2532406 15.886784 -7.3066406 15.896484 C -7.8499406 15.995584 -8.36965 15.635197 -8.46875 15.091797 L -8.8359375 13.085938 C -8.8723365 12.886537 -9.0244563 12.727647 -9.2226562 12.685547 C -9.8025563 12.562147 -10.3977 12.5 -11 12.5 z M -11 18 A 3 3 0 0 1 -8 21 A 3 3 0 0 1 -11 24 A 3 3 0 0 1 -14 21 A 3 3 0 0 1 -11 18 z " />
    <path
       style="fill:none"
       inkscape:connector-curvature="0"
       d="M -22,10 V 32 H 0 V 10 Z"
       id="path9" />
  </g>
  <g
     id="16-16-configure"
     transform="translate(3.000011,0.250003)">
    <path
       id="rect1393"
       style="opacity:1;fill:#fbfbfb;fill-rule:evenodd;stroke-width:2;stroke-linecap:round;stroke-linejoin:round;paint-order:stroke fill markers"
       d="M -30 18.001953 C -30.42711 18.001953 -30.848586 18.045713 -31.259766 18.132812 C -31.400296 18.162602 -31.509406 18.275266 -31.535156 18.416016 L -31.792969 19.830078 C -31.799869 19.867678 -31.811269 19.905308 -31.824219 19.941406 C -31.955929 20.308436 -32.359946 20.500291 -32.728516 20.369141 L -34.087891 19.884766 C -34.223011 19.836656 -34.374513 19.874449 -34.470703 19.980469 C -35.039573 20.607429 -35.470702 21.346404 -35.732422 22.152344 C -35.776572 22.288314 -35.734422 22.43875 -35.625 22.53125 L -34.523438 23.462891 C -34.494107 23.487691 -34.466316 23.513769 -34.441406 23.542969 C -34.188076 23.840039 -34.225089 24.284859 -34.523438 24.537109 L -35.625 25.46875 C -35.73443 25.56123 -35.776572 25.711696 -35.732422 25.847656 C -35.470702 26.653606 -35.039573 27.392531 -34.470703 28.019531 C -34.374513 28.125531 -34.223011 28.163337 -34.087891 28.115234 L -32.728516 27.630859 C -32.692336 27.618059 -32.655056 27.608563 -32.617188 27.601562 C -32.232137 27.531662 -31.863189 27.786522 -31.792969 28.169922 L -31.535156 29.583984 C -31.509406 29.724784 -31.400296 29.837388 -31.259766 29.867188 C -30.848586 29.954287 -30.42711 29.998047 -30 29.998047 C -29.57315 29.998047 -29.151174 29.954288 -28.740234 29.867188 C -28.599744 29.837488 -28.492607 29.724684 -28.466797 29.583984 L -28.207031 28.169922 C -28.200131 28.132122 -28.188731 28.094692 -28.175781 28.058594 C -28.044071 27.691594 -27.639984 27.499759 -27.271484 27.630859 L -25.910156 28.115234 C -25.775056 28.163334 -25.625497 28.125531 -25.529297 28.019531 C -24.960397 27.392531 -24.529378 26.653606 -24.267578 25.847656 C -24.223478 25.711696 -24.265578 25.56125 -24.375 25.46875 L -25.476562 24.537109 C -25.505862 24.512409 -25.533694 24.486231 -25.558594 24.457031 C -25.811894 24.159961 -25.774861 23.715141 -25.476562 23.462891 L -24.375 22.53125 C -24.2656 22.43877 -24.223478 22.288314 -24.267578 22.152344 C -24.529378 21.346404 -24.960397 20.607429 -25.529297 19.980469 C -25.625497 19.874469 -25.775056 19.836663 -25.910156 19.884766 L -27.271484 20.369141 C -27.307684 20.382041 -27.344914 20.391438 -27.382812 20.398438 C -27.767913 20.468357 -28.136811 20.213468 -28.207031 19.830078 L -28.466797 18.416016 C -28.492607 18.275326 -28.599744 18.162613 -28.740234 18.132812 C -29.151174 18.045813 -29.57315 18.001953 -30 18.001953 z M -30 22 A 2 2 0 0 1 -28 24 A 2 2 0 0 1 -30 26 A 2 2 0 0 1 -32 24 A 2 2 0 0 1 -30 22 z "
       transform="translate(-3.000011,-0.250003)" />
    <path
       style="fill:none;stroke-width:0.727273"
       inkscape:connector-curvature="0"
       d="m -41.000011,15.749997 v 16 h 16 v -16 z"
       id="path9-7" />
  </g>
</svg>
