<?xml version="1.0" encoding="UTF-8" standalone="no"?>
<svg
   width="32"
   height="32"
   version="1.1"
   id="svg16"
   sodipodi:docname="dropbox.svg"
   inkscape:version="1.1.1 (3bf5ae0d25, 2021-09-20, custom)"
   xmlns:inkscape="http://www.inkscape.org/namespaces/inkscape"
   xmlns:sodipodi="http://sodipodi.sourceforge.net/DTD/sodipodi-0.dtd"
   xmlns="http://www.w3.org/2000/svg"
   xmlns:svg="http://www.w3.org/2000/svg"
   xmlns:rdf="http://www.w3.org/1999/02/22-rdf-syntax-ns#"
   xmlns:cc="http://creativecommons.org/ns#"
   xmlns:dc="http://purl.org/dc/elements/1.1/">
  <metadata
     id="metadata22">
    <rdf:RDF>
      <cc:Work
         rdf:about="">
        <dc:format>image/svg+xml</dc:format>
        <dc:type
           rdf:resource="http://purl.org/dc/dcmitype/StillImage" />
      </cc:Work>
    </rdf:RDF>
  </metadata>
  <defs
     id="defs20">
    <linearGradient
       id="oomox"
       x1="131.53468"
       x2="131.53468"
       y1="146.39674"
       y2="160.8511"
       gradientTransform="scale(1.0377491,0.96362406)"
       gradientUnits="userSpaceOnUse">
      <stop
         offset="0%"
         style="stop-color:#303b3d; stop-opacity:1"
         id="stop18" />
      <stop
         offset="100%"
         style="stop-color:#bc985d; stop-opacity:1"
         id="stop20" />
    </linearGradient>
  </defs>
  <sodipodi:namedview
     pagecolor="#c8c8c8"
     bordercolor="#666666"
     borderopacity="1"
     objecttolerance="10"
     gridtolerance="10"
     guidetolerance="10"
     inkscape:pageopacity="0"
     inkscape:pageshadow="2"
     inkscape:window-width="1920"
     inkscape:window-height="1005"
     id="namedview18"
     showgrid="true"
     inkscape:zoom="8"
     inkscape:cx="6.9375"
     inkscape:cy="8.375"
     inkscape:window-x="0"
     inkscape:window-y="0"
     inkscape:window-maximized="1"
     inkscape:current-layer="svg16"
     inkscape:document-rotation="0"
     inkscape:pagecheckerboard="0"
     inkscape:snap-bbox="true"
     inkscape:bbox-nodes="true"
     inkscape:snap-bbox-edge-midpoints="true"
     inkscape:snap-nodes="false"
     inkscape:object-nodes="true">
    <inkscape:grid
       type="xygrid"
       id="grid876"
       originx="0"
       originy="0" />
  </sodipodi:namedview>
  <g
     id="22-22-dropbox">
    <rect
       style="opacity:0.00100002"
       width="22"
       height="22"
       x="32"
       y="10"
       id="rect2" />
    <path
       id="rect3127"
       style="opacity:1;fill:#fbfbfb;fill-opacity:1;fill-rule:evenodd;stroke-width:0.558127;stroke-linecap:round;stroke-linejoin:round;paint-order:stroke fill markers"
       d="m 43,13 c -0.441325,0 -0.883561,0.08558 -1.300781,0.257442 l -5.75586,2.371285 C 35.373879,15.863298 35,16.431142 35,17.062761 v 7.874115 c 0,0.631661 0.373879,1.199454 0.943359,1.434035 l 5.75586,2.371286 c 0.83444,0.343737 1.767062,0.343737 2.601562,0 l 5.75586,-2.371286 C 50.626141,26.13633 51,25.568537 51,24.936876 v -7.874115 c 0,-0.631619 -0.373859,-1.199463 -0.943359,-1.434034 l -5.75586,-2.371285 C 43.883531,13.085584 43.441325,13 43,13 Z m -4.490234,3.879736 c 0.06494,0.0012 0.130274,0.01537 0.193359,0.04425 L 43,18.891005 47.296875,16.923983 c 0.2524,-0.115488 0.547956,0.0016 0.660156,0.261466 0.1121,0.259853 -0.0015,0.564321 -0.253906,0.67981 L 43.5,19.790042 v 4.812964 c 0,0.28432 -0.22385,0.514885 -0.5,0.514885 -0.27614,0 -0.5,-0.230565 -0.5,-0.514885 v -4.812964 l -4.203125,-1.924784 c -0.25233,-0.115489 -0.366066,-0.419957 -0.253906,-0.679809 0.08411,-0.194889 0.27198,-0.309343 0.466797,-0.305713 z" />
  </g>
  <g
     id="dropbox">
    <rect
       style="opacity:0.00100002"
       width="32"
       height="32"
       x="0"
       y="0"
       id="rect9" />
    <path
       id="path1423"
       style="fill:#fbfbfb;fill-rule:evenodd;stroke-width:0.854463;stroke-linecap:round;stroke-linejoin:round;paint-order:stroke fill markers"
       d="m 16,4 c -0.172392,0 -0.343821,0.00732 -0.515625,0.023437 -0.171802,0.016111 -0.343635,0.040044 -0.513672,0.072266 -0.170038,0.032222 -0.338763,0.072745 -0.505859,0.1210938 -0.167095,0.048333 -0.331165,0.1054697 -0.494141,0.1699219 L 4.974609,7.9433594 C 4.86339,7.9873364 4.75541,8.0388349 4.654297,8.0976562 4.553184,8.1564784 4.457104,8.2247891 4.367188,8.296875 4.277258,8.36895 4.194823,8.4455424 4.117188,8.5292969 4.039538,8.6130499 3.966624,8.7030213 3.902344,8.796875 3.838064,8.89073 3.782256,8.9874755 3.732422,9.0898438 3.682592,9.1922099 3.641717,9.3008526 3.607422,9.4101562 3.573122,9.5194588 3.545044,9.6294831 3.527344,9.7441406 3.509657,9.8587889 3.5,9.9753192 3.5,10.09375 v 11.8125 c 0,0.118446 0.00967,0.234949 0.027344,0.349609 0.01769,0.114663 0.045768,0.228587 0.080078,0.337891 0.0343,0.109302 0.075175,0.214038 0.125,0.316406 0.04983,0.102366 0.105649,0.20107 0.169922,0.294922 0.06428,0.09385 0.137205,0.181872 0.214844,0.265625 0.077649,0.08375 0.160082,0.164253 0.25,0.236328 0.089929,0.07208 0.185997,0.136484 0.287109,0.195313 0.101113,0.05882 0.209085,0.110304 0.320312,0.154297 l 8.996094,3.55664 c 0.162976,0.06444 0.327046,0.121581 0.494141,0.169922 0.167096,0.04833 0.335822,0.08886 0.505859,0.121094 0.170037,0.03222 0.34187,0.05616 0.513672,0.07227 C 15.656179,27.992673 15.827607,28 16,28 c 0.172392,0 0.343818,-0.0073 0.515625,-0.02344 0.171805,-0.01611 0.34363,-0.04005 0.513672,-0.07227 0.170044,-0.03222 0.338756,-0.07275 0.505859,-0.121094 0.167103,-0.04833 0.33506,-0.10547 0.498047,-0.169922 l 8.992188,-3.55664 c 0.111235,-0.04399 0.219197,-0.09547 0.320312,-0.154297 0.101113,-0.05882 0.197192,-0.12323 0.287109,-0.195313 0.08993,-0.07207 0.172366,-0.152571 0.25,-0.236328 0.07765,-0.08375 0.150564,-0.171776 0.214844,-0.265625 0.06426,-0.09386 0.120102,-0.192558 0.169922,-0.294922 0.04983,-0.102367 0.09461,-0.207101 0.128906,-0.316406 0.0343,-0.109302 0.05847,-0.223228 0.07617,-0.337891 C 28.490329,22.141202 28.5,22.02469 28.5,21.90625 v -11.8125 c 0,-0.1184308 -0.0097,-0.2349534 -0.02734,-0.3496094 C 28.454968,9.6294784 28.430781,9.5194601 28.396484,9.4101562 28.362187,9.3008543 28.317406,9.1922118 28.267578,9.0898438 28.21775,8.9874772 28.16193,8.8907272 28.097656,8.796875 28.033391,8.7030198 27.960452,8.6130545 27.882812,8.5292969 27.805171,8.4455439 27.722727,8.3689547 27.632812,8.296875 27.54289,8.2247998 27.446818,8.1564718 27.345703,8.0976562 27.244594,8.038835 27.136619,7.9873367 27.025391,7.9433594 L 18.033203,4.3867188 C 17.870216,4.3222748 17.702259,4.2651379 17.535156,4.2167969 17.368052,4.1684639 17.199341,4.1279406 17.029297,4.0957031 16.859256,4.0634811 16.68743,4.0395495 16.515625,4.0234375 16.343818,4.0073238 16.172393,4 16,4 Z M 8.615234,9.8828125 c 0.064948,0.0013 0.130099,0.014797 0.19336,0.042969 l 6.394531,2.8476568 0.0098,0.0059 L 16,13.128906 16.787109,12.779297 c 0.0035,-0.0017 0.0062,-0.0043 0.0098,-0.0059 l 6.394531,-2.8476568 c 0.06326,-0.028171 0.128412,-0.041669 0.19336,-0.042969 0.194843,-0.0039 0.382282,0.1070917 0.466796,0.2968755 0.112687,0.253041 -8.63e-4,0.547469 -0.253906,0.660156 l -2.865234,1.27539 c -0.01011,0.0054 -0.01868,0.01286 -0.0293,0.01758 l -3.5,1.554688 L 16.5,14 V 14.5 18.675781 21.5 c 0,0.277 -0.223,0.5 -0.5,0.5 -0.277,0 -0.5,-0.223 -0.5,-0.5 V 18.675781 14.5 14 l -0.703125,-0.3125 -3.5,-1.554688 c -0.01061,-0.0047 -0.01919,-0.01214 -0.0293,-0.01758 L 8.402344,10.839844 C 8.149301,10.727157 8.035751,10.43273 8.148438,10.179688 8.232952,9.9899047 8.420391,9.8789141 8.615234,9.8828125 Z" />
  </g>
</svg>
