<?xml version="1.0" encoding="UTF-8" standalone="no"?>
<svg
   width="22"
   height="22"
   version="1.1"
   id="svg8"
   sodipodi:docname="kleopatra.svg"
   inkscape:version="1.1.1 (3bf5ae0d25, 2021-09-20, custom)"
   xmlns:inkscape="http://www.inkscape.org/namespaces/inkscape"
   xmlns:sodipodi="http://sodipodi.sourceforge.net/DTD/sodipodi-0.dtd"
   xmlns="http://www.w3.org/2000/svg"
   xmlns:svg="http://www.w3.org/2000/svg"
   xmlns:rdf="http://www.w3.org/1999/02/22-rdf-syntax-ns#"
   xmlns:cc="http://creativecommons.org/ns#"
   xmlns:dc="http://purl.org/dc/elements/1.1/">
  <metadata
     id="metadata14">
    <rdf:RDF>
      <cc:Work
         rdf:about="">
        <dc:format>image/svg+xml</dc:format>
        <dc:type
           rdf:resource="http://purl.org/dc/dcmitype/StillImage" />
      </cc:Work>
    </rdf:RDF>
  </metadata>
  <defs
     id="defs12" />
  <sodipodi:namedview
     pagecolor="#c8c8c8"
     bordercolor="#666666"
     borderopacity="1"
     objecttolerance="10"
     gridtolerance="10"
     guidetolerance="10"
     inkscape:pageopacity="0"
     inkscape:pageshadow="2"
     inkscape:window-width="1920"
     inkscape:window-height="936"
     id="namedview10"
     showgrid="true"
     inkscape:zoom="21.454546"
     inkscape:cx="1.4682203"
     inkscape:cy="11.769067"
     inkscape:window-x="0"
     inkscape:window-y="40"
     inkscape:window-maximized="1"
     inkscape:current-layer="svg8"
     inkscape:pagecheckerboard="0">
    <inkscape:grid
       type="xygrid"
       id="grid938" />
  </sodipodi:namedview>
  <g
     id="kleopatra">
    <rect
       style="fill:none;fill-opacity:1;stroke:none;stroke-width:1;stroke-linecap:round;stroke-linejoin:round;stroke-miterlimit:4;stroke-dasharray:none;stroke-opacity:1"
       id="rect4764"
       width="22"
       height="22"
       x="0"
       y="-1.7382812e-05" />
    <path
       id="path933"
       d="m 10.999024,6 c -3.69341,0 -6.9415,2.6736475 -7.71875,6.398438 -0.0564,0.2703 0.116398,0.535296 0.386718,0.591796 0.27032,0.0564 0.535387,-0.118271 0.591797,-0.388672 C 4.942239,9.3263525 7.793384,7 10.999024,7 c 3.20565,0 6.058687,2.3263425 6.742187,5.601562 0.0564,0.270401 0.321497,0.445072 0.591797,0.388672 0.2703,-0.0565 0.443119,-0.321497 0.386719,-0.591796 C 17.942427,8.6736575 14.692474,6 10.999024,6 Z m -0.0098,3 c -1.933,0 -3.5,1.567 -3.5,3.5 0,1.933 1.567,3.5 3.5,3.5 1.93303,0 3.5,-1.567 3.5,-3.5 0,-1.933 -1.56697,-3.5 -3.5,-3.5 z"
       style="fill:#fbfbfb;fill-opacity:1" />
  </g>
</svg>
