<?xml version="1.0" encoding="UTF-8" standalone="no"?>
<svg
   width="32"
   height="32"
   version="1"
   id="svg12"
   sodipodi:docname="knotes.svg"
   inkscape:version="1.1.1 (3bf5ae0d25, 2021-09-20, custom)"
   xmlns:inkscape="http://www.inkscape.org/namespaces/inkscape"
   xmlns:sodipodi="http://sodipodi.sourceforge.net/DTD/sodipodi-0.dtd"
   xmlns="http://www.w3.org/2000/svg"
   xmlns:svg="http://www.w3.org/2000/svg"
   xmlns:rdf="http://www.w3.org/1999/02/22-rdf-syntax-ns#"
   xmlns:cc="http://creativecommons.org/ns#"
   xmlns:dc="http://purl.org/dc/elements/1.1/">
  <metadata
     id="metadata18">
    <rdf:RDF>
      <cc:Work
         rdf:about="">
        <dc:format>image/svg+xml</dc:format>
        <dc:type
           rdf:resource="http://purl.org/dc/dcmitype/StillImage" />
        <dc:title />
      </cc:Work>
    </rdf:RDF>
  </metadata>
  <defs
     id="defs16" />
  <sodipodi:namedview
     pagecolor="#c8c8c8"
     bordercolor="#666666"
     borderopacity="1"
     objecttolerance="10"
     gridtolerance="10"
     guidetolerance="10"
     inkscape:pageopacity="0"
     inkscape:pageshadow="2"
     inkscape:window-width="1920"
     inkscape:window-height="1005"
     id="namedview14"
     showgrid="true"
     inkscape:zoom="9.8125"
     inkscape:cx="5.6560509"
     inkscape:cy="21.605096"
     inkscape:window-x="0"
     inkscape:window-y="0"
     inkscape:window-maximized="1"
     inkscape:current-layer="svg12"
     inkscape:document-rotation="0"
     inkscape:pagecheckerboard="0"
     inkscape:snap-bbox="true"
     inkscape:bbox-nodes="true"
     inkscape:snap-nodes="true"
     inkscape:snap-bbox-edge-midpoints="true"
     inkscape:snap-smooth-nodes="true">
    <inkscape:grid
       type="xygrid"
       id="grid857"
       originx="0"
       originy="0" />
  </sodipodi:namedview>
  <g
     id="22-22-knotes">
    <path
       id="rect1685"
       style="fill:#fbfbfb;fill-rule:evenodd;stroke-width:1.226;stroke-linecap:round;stroke-linejoin:round;stroke-miterlimit:4;stroke-dasharray:none;paint-order:stroke fill markers"
       d="m 43.5,13 c -0.65311,0 -1.210096,0.4174 -1.416016,1 H 40.5 C 39.67157,14 39,14.67157 39,15.5 v 12 c 0,0.8284 0.67157,1.5 1.5,1.5 h 11 c 0.8284,0 1.5,-0.6716 1.5,-1.5 v -12 C 53,14.67157 52.3284,14 51.5,14 H 49.914062 C 49.708162,13.4174 49.153099,13 48.5,13 Z m 0,1 h 5 c 0.276099,0 0.5,0.22386 0.5,0.5 0,0.27614 -0.2239,0.5 -0.5,0.5 h -5 C 43.22386,15 43,14.77614 43,14.5 43,14.22386 43.22386,14 43.5,14 Z m -2,5 h 9 c 0.276099,0 0.5,0.22386 0.5,0.5 0,0.27614 -0.2239,0.5 -0.5,0.5 h -9 C 41.22386,20 41,19.77614 41,19.5 41,19.22386 41.22386,19 41.5,19 Z m 0,3 h 3 c 0.276139,0 0.5,0.2239 0.5,0.5 0,0.2761 -0.223861,0.5 -0.5,0.5 h -3 C 41.22386,23 41,22.7761 41,22.5 41,22.2239 41.22386,22 41.5,22 Z m 0,3 h 7 c 0.276099,0 0.5,0.2239 0.5,0.5 0,0.2761 -0.2239,0.5 -0.5,0.5 h -7 C 41.22386,26 41,25.7761 41,25.5 41,25.2239 41.22386,25 41.5,25 Z"
       sodipodi:nodetypes="scsssssssscssssssssssssssssssssssssssssss" />
    <rect
       style="fill:none;fill-opacity:1;stroke:none;stroke-width:0.1;stroke-linecap:square;stroke-linejoin:miter;stroke-miterlimit:4;stroke-dasharray:none;stroke-dashoffset:0;stroke-opacity:1"
       id="rect4148-6"
       width="22"
       height="22"
       x="35"
       y="10" />
  </g>
  <g
     id="knotes">
    <rect
       y="0"
       x="-2.8953547e-08"
       height="32"
       width="32.000004"
       id="rect4230-3"
       style="fill:none;fill-opacity:1;stroke:none" />
    <path
       id="path1768"
       style="fill:#fbfbfb;fill-rule:evenodd;stroke-width:1.226;stroke-linecap:round;stroke-linejoin:round;stroke-miterlimit:4;stroke-dasharray:none;paint-order:stroke fill markers"
       d="M 12,3 C 11.34689,3 10.789904,3.4174 10.583984,4 H 6.5 C 5.67157,4 5,4.67157 5,5.5 v 22 C 5,28.3284 5.67157,29 6.5,29 h 19 C 26.3284,29 27,28.3284 27,27.5 V 5.5 C 27,4.67157 26.3284,4 25.5,4 H 21.414062 C 21.208162,3.4174 20.653099,3 20,3 Z m 0,1 h 8 c 0.276099,0 0.5,0.22386 0.5,0.5 C 20.5,4.77614 20.2761,5 20,5 H 12 C 11.72386,5 11.5,4.77614 11.5,4.5 11.5,4.22386 11.72386,4 12,4 Z m -4.5,6 h 16 c 0.276099,0 0.5,0.22386 0.5,0.5 0,0.27614 -0.2239,0.5 -0.5,0.5 H 7.5 C 7.22386,11 7,10.77614 7,10.5 7,10.22386 7.22386,10 7.5,10 Z m 0,3 h 6 c 0.276139,0 0.5,0.2239 0.5,0.5 0,0.2761 -0.223861,0.5 -0.5,0.5 h -6 C 7.22386,14 7,13.7761 7,13.5 7,13.2239 7.22386,13 7.5,13 Z m 0,3 h 14 c 0.276099,0 0.5,0.2239 0.5,0.5 0,0.2761 -0.2239,0.5 -0.5,0.5 H 7.5 C 7.22386,17 7,16.7761 7,16.5 7,16.2239 7.22386,16 7.5,16 Z m 0,3 h 16 c 0.277,0 0.5,0.223 0.5,0.5 0,0.277 -0.223,0.5 -0.5,0.5 H 7.5 C 7.223,20 7,19.777 7,19.5 7,19.223 7.223,19 7.5,19 Z m 0,3 h 6 c 0.277,0 0.5,0.223 0.5,0.5 0,0.277 -0.223,0.5 -0.5,0.5 h -6 C 7.223,23 7,22.777 7,22.5 7,22.223 7.223,22 7.5,22 Z m 0,3 h 14 c 0.277,0 0.5,0.223 0.5,0.5 0,0.277 -0.223,0.5 -0.5,0.5 H 7.5 C 7.223,26 7,25.777 7,25.5 7,25.223 7.223,25 7.5,25 Z"
       sodipodi:nodetypes="scsssssssscsssssssssssssssssssssssssssssssssssssssssssssssssss" />
  </g>
</svg>
