<?xml version="1.0" encoding="UTF-8" standalone="no"?>
<svg
   inkscape:version="1.1.1 (3bf5ae0d25, 2021-09-20, custom)"
   sodipodi:docname="media.svg"
   id="svg67"
   viewBox="0 0 22 22"
   version="1.1"
   height="22"
   width="22"
   xmlns:inkscape="http://www.inkscape.org/namespaces/inkscape"
   xmlns:sodipodi="http://sodipodi.sourceforge.net/DTD/sodipodi-0.dtd"
   xmlns="http://www.w3.org/2000/svg"
   xmlns:svg="http://www.w3.org/2000/svg"
   xmlns:rdf="http://www.w3.org/1999/02/22-rdf-syntax-ns#"
   xmlns:cc="http://creativecommons.org/ns#"
   xmlns:dc="http://purl.org/dc/elements/1.1/">
  <metadata
     id="metadata71">
    <rdf:RDF>
      <cc:Work
         rdf:about="">
        <dc:format>image/svg+xml</dc:format>
        <dc:type
           rdf:resource="http://purl.org/dc/dcmitype/StillImage" />
        <dc:title />
      </cc:Work>
    </rdf:RDF>
  </metadata>
  <sodipodi:namedview
     inkscape:document-rotation="0"
     inkscape:current-layer="svg67"
     inkscape:window-maximized="1"
     inkscape:window-y="0"
     inkscape:window-x="0"
     inkscape:cy="-2.237288"
     inkscape:cx="-11.326271"
     inkscape:zoom="10.727273"
     showgrid="true"
     id="namedview69"
     inkscape:window-height="1005"
     inkscape:window-width="1920"
     inkscape:pageshadow="2"
     inkscape:pageopacity="0"
     guidetolerance="10"
     gridtolerance="10"
     objecttolerance="10"
     borderopacity="1"
     bordercolor="#666666"
     pagecolor="#c8c8c8"
     inkscape:snap-bbox="true"
     inkscape:bbox-nodes="true"
     inkscape:snap-bbox-edge-midpoints="true"
     inkscape:snap-smooth-nodes="true"
     inkscape:pagecheckerboard="0">
    <inkscape:grid
       id="grid878"
       type="xygrid" />
  </sodipodi:namedview>
  <defs
     id="defs3">
    <style
       type="text/css"
       id="current-color-scheme">.ColorScheme-Text { color:#dedede; } .ColorScheme-Highlight { color:#5294e2; } .ColorScheme-ButtonBackground { color:#dedede; }</style>
  </defs>
  <g
     id="media-record"
     transform="translate(22,-1055.4)"
     style="fill:#000000">
    <rect
       y="1030.4"
       width="22"
       height="22"
       opacity="0.00100002"
       id="rect5"
       x="0" />
    <path
       class="ColorScheme-Highlight"
       d="m 11,1035.4 c -3.311,0 -6,2.6888 -6,6 0,3.311 2.689,6 6,6 3.311,0 6,-2.689 6,-6 0,-3.3112 -2.689,-6 -6,-6 z"
       enable-background="new"
       fill="#f96060"
       id="path7"
       style="fill:#ff3232;fill-opacity:1" />
  </g>
  <g
     id="media-playback-paused">
    <rect
       style="color:#dedede;stroke-width:1.5"
       x="-24.00025"
       y="1.373291e-07"
       width="22.0005"
       height="22.0005"
       fill="#ed1515"
       fill-opacity="0.00392163"
       opacity="0.01"
       id="rect50" />
    <path
       id="path885"
       style="opacity:1;fill:#fbfbfb;fill-opacity:1;fill-rule:evenodd;stroke-width:0.55;stroke-linecap:round;stroke-linejoin:round;paint-order:stroke fill markers"
       d="m -13,2 a 9,9 0 0 0 -9,9 9,9 0 0 0 9,9 9,9 0 0 0 9,-9 9,9 0 0 0 -9,-9 z m -1.5,6 c 0.277,0 0.5,0.223 0.5,0.5 v 5 c 0,0.277 -0.223,0.5 -0.5,0.5 -0.277,0 -0.5,-0.223 -0.5,-0.5 v -5 C -15,8.223 -14.777,8 -14.5,8 Z m 3,0 c 0.277,0 0.5,0.223 0.5,0.5 v 5 c 0,0.277 -0.223,0.5 -0.5,0.5 -0.277,0 -0.5,-0.223 -0.5,-0.5 v -5 C -12,8.223 -11.777,8 -11.5,8 Z" />
  </g>
  <g
     id="media-playback-stopped">
    <rect
       style="color:#dedede;stroke-width:1.5"
       x="23.999752"
       y="-0.00024986267"
       width="22.0005"
       height="22.0005"
       fill="#ed1515"
       fill-opacity="0.00392163"
       opacity="0.01"
       id="rect60" />
    <path
       id="circle1381"
       style="opacity:1;fill:#fbfbfb;fill-opacity:1;fill-rule:evenodd;stroke-width:0.55;stroke-linecap:round;stroke-linejoin:round;paint-order:stroke fill markers"
       d="M 35 2 A 9 9 0 0 0 26 11 A 9 9 0 0 0 35 20 A 9 9 0 0 0 44 11 A 9 9 0 0 0 35 2 z M 33 8 L 37 8 C 37.554 8 38 8.446 38 9 L 38 13 C 38 13.554 37.554 14 37 14 L 33 14 C 32.446 14 32 13.554 32 13 L 32 9 C 32 8.446 32.446 8 33 8 z " />
  </g>
  <g
     id="media-playback-playing">
    <rect
       style="color:#dedede;stroke-width:1.5"
       x="-0.00024986267"
       y="-0.00024986267"
       width="22.0005"
       height="22.0005"
       fill="#ed1515"
       fill-opacity="0.00392163"
       opacity="0.01"
       id="rect55" />
    <path
       id="circle1483"
       style="opacity:1;fill:#fbfbfb;fill-opacity:1;fill-rule:evenodd;stroke-width:0.55;stroke-linecap:round;stroke-linejoin:round;paint-order:stroke fill markers"
       d="m 11,2 c -4.9705627,0 -9,4.0294373 -9,9 0,4.970563 4.0294373,9 9,9 4.970563,0 9,-4.029437 9,-9 C 20,6.0294373 15.970563,2 11,2 Z M 8.983911,7.4960938 c 0.1451711,-0.00301 0.2944792,0.032671 0.4355469,0.1132812 l 4.6484381,2.65625 c 0.568655,0.32493 0.568655,1.143819 0,1.46875 l -4.6484381,2.65625 c -0.564271,0.322399 -1.265625,-0.08448 -1.265625,-0.734375 v -5.3125 c 0,-0.4874209 0.394565,-0.8386304 0.8300781,-0.8476562 z"
       sodipodi:nodetypes="ssssssccccsss" />
  </g>
  <g
     id="media-eject">
    <path
       id="rect2936"
       style="opacity:1;fill:#fbfbfb;fill-opacity:1;fill-rule:evenodd;stroke-width:0.55;stroke-linecap:round;stroke-linejoin:round;paint-order:stroke fill markers"
       d="m -32.99517,-20 c -0.408735,0 -0.764082,0.157375 -0.996094,0.470703 l -3.847656,4.705078 c -0.486068,0.602957 -0.08044,1.8125 0.847656,1.8125 h 8 c 0.9281,0 1.300256,-1.190675 0.839844,-1.8125 l -3.839844,-4.705078 C -32.223277,-19.842625 -32.586436,-20 -32.99517,-20 Z"
       sodipodi:nodetypes="sccssccs" />
    <rect
       y="-24.999975"
       width="22"
       height="22"
       opacity="0.00100002"
       id="rect35"
       x="-44"
       style="fill:#000000" />
    <rect
       style="opacity:1;fill:#fbfbfb;fill-opacity:1;fill-rule:evenodd;stroke-width:0.55;stroke-linecap:round;stroke-linejoin:round;paint-order:stroke fill markers"
       id="rect2813"
       width="10"
       height="2"
       x="-37.991264"
       y="-11"
       ry="1" />
  </g>
  <g
     id="media-playback-pause">
    <rect
       y="-24.999975"
       width="22"
       height="22"
       opacity="0.00100002"
       id="rect40"
       x="-22"
       style="fill:#000000" />
    <rect
       style="opacity:1;fill:#fbfbfb;fill-opacity:1;fill-rule:evenodd;stroke-width:0.55;stroke-linecap:round;stroke-linejoin:round;paint-order:stroke fill markers"
       id="rect3503"
       width="4"
       height="12"
       x="-17"
       y="-20"
       ry="2" />
    <rect
       style="opacity:1;fill:#fbfbfb;fill-opacity:1;fill-rule:evenodd;stroke-width:0.55;stroke-linecap:round;stroke-linejoin:round;paint-order:stroke fill markers"
       id="rect3703"
       width="4"
       height="12"
       x="-9"
       y="-20"
       ry="2" />
  </g>
  <g
     id="media-playback-start">
    <rect
       y="-24.999975"
       width="22"
       height="22"
       opacity="0.00100002"
       id="rect45"
       x="0"
       style="fill:#000000" />
    <path
       id="rect3945"
       style="opacity:1;fill:#fbfbfb;fill-opacity:1;fill-rule:evenodd;stroke-width:0.55;stroke-linecap:round;stroke-linejoin:round;paint-order:stroke fill markers"
       d="M 7.4648438,-20.002352 C 6.6955223,-19.982642 6,-19.360874 6,-18.500399 v 8.9999999 c 0,1.1473 1.234465,1.870994 2.234375,1.308594 l 8.001953,-4.4999999 c 1.0195,-0.5734 1.0194,-2.041735 0,-2.615235 l -8.001953,-4.5 c -0.2499775,-0.140624 -0.5130908,-0.201881 -0.7695312,-0.195312 z" />
  </g>
  <g
     id="media-playback-stop">
    <rect
       y="-24.999975"
       width="22"
       height="22"
       opacity="0.00100002"
       id="rect10"
       x="44"
       style="fill:#000000" />
    <rect
       style="opacity:1;fill:#fbfbfb;fill-opacity:1;fill-rule:evenodd;stroke-width:0.55;stroke-linecap:round;stroke-linejoin:round;paint-order:stroke fill markers"
       id="rect4204"
       width="12"
       height="12"
       x="49"
       y="-20"
       ry="2" />
  </g>
  <g
     id="media-skip-forward">
    <rect
       y="-24.999975"
       width="22"
       height="22"
       opacity="0.00100002"
       id="rect15"
       x="66"
       style="fill:#000000" />
    <path
       id="rect4607"
       style="opacity:1;fill:#fbfbfb;fill-opacity:1;fill-rule:evenodd;stroke-width:0.55;stroke-linecap:round;stroke-linejoin:round;paint-order:stroke fill markers"
       d="M 73.050781,-20.035244 C 72.514189,-20.061264 72,-19.643359 72,-19.035244 v 10.0703119 c 0,0.811001 0.913762,1.284007 1.576172,0.816407 l 7.132812,-5.0351569 c 0.5644,-0.39842 0.5644,-1.234392 0,-1.632812 l -7.132812,-5.035156 c -0.165603,-0.116895 -0.346527,-0.174922 -0.525391,-0.183594 z M 83.25,-20.000084 c -0.4142,0 -0.75,0.33579 -0.75,0.75 v 10.4999999 c 0,0.4142 0.3358,0.75 0.75,0.75 0.4142,0 0.75,-0.3358 0.75,-0.75 V -19.250088 c 0,-0.41421 -0.3358,-0.75 -0.75,-0.75 z" />
  </g>
  <g
     id="media-skip-backward">
    <rect
       y="-24.999975"
       width="22"
       height="22"
       opacity="0.00100002"
       id="rect20"
       x="-110"
       transform="scale(-1,1)"
       style="fill:#000000" />
    <path
       id="path4690"
       style="opacity:1;fill:#fbfbfb;fill-opacity:1;fill-rule:evenodd;stroke-width:0.55;stroke-linecap:round;stroke-linejoin:round;paint-order:stroke fill markers"
       d="m 102.94922,-20.035244 c 0.53659,-0.02602 1.05078,0.391885 1.05078,1 v 10.0703119 c 0,0.811001 -0.91376,1.284007 -1.57617,0.816407 l -7.132814,-5.0351569 c -0.5644,-0.39842 -0.5644,-1.234392 0,-1.632812 l 7.132814,-5.035156 c 0.1656,-0.116895 0.34652,-0.174922 0.52539,-0.183594 z M 92.75,-20.000084 c 0.4142,0 0.75,0.33579 0.75,0.75 v 10.4999999 c 0,0.4142 -0.3358,0.75 -0.75,0.75 -0.4142,0 -0.75,-0.3358 -0.75,-0.75 V -19.250088 c 0,-0.41421 0.3358,-0.75 0.75,-0.75 z" />
  </g>
  <g
     id="media-seek-forward">
    <rect
       y="-24.999975"
       width="22"
       height="22"
       opacity="0.00100002"
       id="rect25"
       x="110"
       style="fill:#000000" />
    <path
       id="rect4985"
       style="opacity:1;fill:#fbfbfb;fill-opacity:1;fill-rule:evenodd;stroke-width:0.55;stroke-linecap:round;stroke-linejoin:round;paint-order:stroke fill markers"
       d="m 114.48828,-20.060547 c -0.0694,0.0018 -0.14012,0.01761 -0.20508,0.04883 -0.17324,0.08326 -0.2832,0.258962 -0.2832,0.451172 v 11.099607 c 0,0.1914 0.1091,0.367472 0.28125,0.451172 0.17216,0.0837 0.37683,0.06156 0.52734,-0.05664 L 121,-12.931641 v 4.470703 c 0,0.1914 0.10915,0.367472 0.28125,0.451172 0.1722,0.0837 0.37684,0.06156 0.52734,-0.05664 l 7,-5.5 c 0.1207,-0.0948 0.19141,-0.241132 0.19141,-0.394532 0,-0.15343 -0.0707,-0.297778 -0.19141,-0.392578 l -7,-5.5 c -0.1505,-0.11825 -0.35514,-0.140321 -0.52734,-0.05664 -0.1721,0.08367 -0.28125,0.257808 -0.28125,0.449218 V -15 l -6.1875,-4.951172 c -0.0938,-0.07504 -0.20849,-0.112294 -0.32422,-0.109375 z" />
  </g>
  <g
     id="media-seek-backward">
    <rect
       y="-24.999975"
       width="22"
       height="22"
       opacity="0.00100002"
       id="rect30"
       x="-154"
       transform="scale(-1,1)"
       style="fill:#000000" />
    <path
       id="path5068"
       style="opacity:1;fill:#fbfbfb;fill-opacity:1;fill-rule:evenodd;stroke-width:0.55;stroke-linecap:round;stroke-linejoin:round;paint-order:stroke fill markers"
       d="m 149.51172,-20.060547 c 0.0694,0.0018 0.14012,0.01761 0.20508,0.04883 0.17324,0.08326 0.2832,0.258962 0.2832,0.451172 v 11.099607 c 0,0.1914 -0.1091,0.367472 -0.28125,0.451172 -0.17216,0.0837 -0.37683,0.06156 -0.52734,-0.05664 L 143,-12.931641 v 4.470703 c 0,0.1914 -0.10915,0.367472 -0.28125,0.451172 -0.1722,0.0837 -0.37684,0.06156 -0.52734,-0.05664 l -7,-5.5 C 135.07071,-13.661206 135,-13.807538 135,-13.960938 c 0,-0.15343 0.0707,-0.297778 0.19141,-0.392578 l 7,-5.5 c 0.1505,-0.11825 0.35514,-0.140321 0.52734,-0.05664 0.1721,0.08367 0.28125,0.257808 0.28125,0.449218 V -15 l 6.1875,-4.951172 c 0.0938,-0.07504 0.20849,-0.112294 0.32422,-0.109375 z" />
  </g>
</svg>
