<?xml version="1.0" encoding="UTF-8" standalone="no"?>
<svg
   version="1.1"
   viewBox="0 0 22 22"
   id="svg12"
   sodipodi:docname="notifications.svg"
   inkscape:version="1.1.2 (0a00cf5339, 2022-02-04, custom)"
   xmlns:inkscape="http://www.inkscape.org/namespaces/inkscape"
   xmlns:sodipodi="http://sodipodi.sourceforge.net/DTD/sodipodi-0.dtd"
   xmlns="http://www.w3.org/2000/svg"
   xmlns:svg="http://www.w3.org/2000/svg"
   xmlns:rdf="http://www.w3.org/1999/02/22-rdf-syntax-ns#"
   xmlns:cc="http://creativecommons.org/ns#"
   xmlns:dc="http://purl.org/dc/elements/1.1/">
  <metadata
     id="metadata16">
    <rdf:RDF>
      <cc:Work
         rdf:about="">
        <dc:format>image/svg+xml</dc:format>
        <dc:type
           rdf:resource="http://purl.org/dc/dcmitype/StillImage" />
        <dc:title />
      </cc:Work>
    </rdf:RDF>
  </metadata>
  <sodipodi:namedview
     pagecolor="#c8c8c8"
     bordercolor="#666666"
     borderopacity="1"
     objecttolerance="10"
     gridtolerance="10"
     guidetolerance="10"
     inkscape:pageopacity="0"
     inkscape:pageshadow="2"
     inkscape:window-width="1920"
     inkscape:window-height="1001"
     id="namedview14"
     showgrid="false"
     inkscape:zoom="13.21004"
     inkscape:cx="1.8546499"
     inkscape:cy="17.37315"
     inkscape:window-x="0"
     inkscape:window-y="0"
     inkscape:window-maximized="1"
     inkscape:current-layer="svg12"
     inkscape:document-rotation="0"
     inkscape:pagecheckerboard="0" />
  <defs
     id="defs3">
    <style
       id="current-color-scheme"
       type="text/css">.ColorScheme-Text { color:#363636; }</style>
  </defs>
  <g
     id="notification-disabled">
    <path
       id="rect881"
       style="fill:#fbfbfb;fill-rule:evenodd;stroke-width:1.226;stroke-linecap:round;stroke-linejoin:round;paint-order:stroke fill markers"
       d="M 10.993164,3 C 7.7665439,3 5.123576,5.4512694 5.000976,8.5683594 L 4.99707,8.7929688 4.995117,12.410156 4.043945,14.996094 4.010742,15.125 4.004883,15.242188 c 0.00678,0.344299 0.195522,0.611096 0.482422,0.716796 0.08303,0.0306 0.171265,0.04492 0.259765,0.04492 h 12.498047 l 0.115234,-0.0098 0.113282,-0.0332 c 0.3263,-0.1168 0.521484,-0.391932 0.521484,-0.707032 l -0.0059,-0.08789 -0.01563,-0.08594 -0.02539,-0.08594 -0.953125,-2.585938 V 8.8027344 L 16.991211,8.578125 16.977539,8.3554688 C 16.736939,5.3349487 14.142074,3 10.993164,3 Z M 8.5458982,17.001953 C 8.7781383,18.142253 9.786187,19 10.995117,19 c 1.20895,0 2.218972,-0.857747 2.451172,-1.998047 z" />
    <rect
       y="0"
       x="0"
       height="22"
       width="22"
       id="rect3028-3"
       style="fill:#ffffff;fill-opacity:0;stroke:none" />
  </g>
</svg>
