<?xml version="1.0" encoding="UTF-8" standalone="no"?>
<svg
   width="22"
   height="22"
   version="1.1"
   id="svg21"
   sodipodi:docname="pamac.svg"
   inkscape:version="1.1.1 (3bf5ae0d25, 2021-09-20, custom)"
   xmlns:inkscape="http://www.inkscape.org/namespaces/inkscape"
   xmlns:sodipodi="http://sodipodi.sourceforge.net/DTD/sodipodi-0.dtd"
   xmlns="http://www.w3.org/2000/svg"
   xmlns:svg="http://www.w3.org/2000/svg">
  <sodipodi:namedview
     id="namedview23"
     pagecolor="#c8c8c8"
     bordercolor="#666666"
     borderopacity="1.0"
     inkscape:pageshadow="2"
     inkscape:pageopacity="0"
     inkscape:pagecheckerboard="0"
     showgrid="true"
     inkscape:snap-bbox="true"
     inkscape:bbox-nodes="true"
     inkscape:snap-bbox-edge-midpoints="true"
     inkscape:snap-nodes="false"
     inkscape:zoom="2.8284271"
     inkscape:cx="-27.046834"
     inkscape:cy="9.3691648"
     inkscape:window-width="1920"
     inkscape:window-height="936"
     inkscape:window-x="0"
     inkscape:window-y="40"
     inkscape:window-maximized="1"
     inkscape:current-layer="svg21"
     inkscape:object-paths="true"
     inkscape:snap-intersection-paths="true">
    <inkscape:grid
       type="xygrid"
       id="grid1777" />
  </sodipodi:namedview>
  <defs
     id="defs3">
    <style
       id="current-color-scheme"
       type="text/css">.ColorScheme-Text{color:#dfdfdf;}.ColorScheme-Highlight{color:#5294e2;}</style>
  </defs>
  <defs
     id="defs7">
    <style
       type="text/css"
       id="style5" />
  </defs>
  <g
     id="pamac-tray-no-update">
    <path
       id="rect5294"
       style="fill:#fbfbfb;fill-opacity:1;fill-rule:evenodd;stroke-linejoin:round;paint-order:stroke fill markers"
       d="m 11,34 a 3.7775009,3.7643125 0 0 0 -0.839844,0.0957 3.7775009,3.7643125 0 0 0 -0.798828,0.279297 l -6.683594,3.228516 a 2.9924934,2.9820457 0 0 0 -0.6875,0.46289 A 2.9924934,2.9820457 0 0 0 1.457031,38.699216 2.9924934,2.9820457 0 0 0 1.117188,39.455075 2.9924934,2.9820457 0 0 0 1,40.271484 v 4.990235 a 13.359282,13.312641 0 0 0 0.103516,1.644531 13.359282,13.312641 0 0 0 0.308593,1.619141 13.359282,13.312641 0 0 0 0.50586,1.570312 13.359282,13.312641 0 0 0 0.697265,1.494141 13.359282,13.312641 0 0 0 0.876954,1.398437 13.359282,13.312641 0 0 0 1.042968,1.277344 13.359282,13.312641 0 0 0 1.195313,1.140625 13.359282,13.312641 0 0 0 1.326172,0.986328 13.359282,13.312641 0 0 0 1.4375,0.8125 13.359282,13.312641 0 0 0 1.529297,0.63086 l 0.06836,0.02344 a 2.9876341,2.9772034 0 0 0 0.601562,0.125 2.9876341,2.9772034 0 0 0 0.613282,0 2.9876341,2.9772034 0 0 0 0.601562,-0.125 l 0.08008,-0.02734 a 13.357592,13.310957 0 0 0 1.527344,-0.630859 13.357592,13.310957 0 0 0 1.435547,-0.814453 13.357592,13.310957 0 0 0 1.326172,-0.984375 13.357592,13.310957 0 0 0 1.191406,-1.140625 13.357592,13.310957 0 0 0 1.042969,-1.279297 13.357592,13.310957 0 0 0 0.875,-1.396484 13.357592,13.310957 0 0 0 0.697265,-1.494141 13.357592,13.310957 0 0 0 0.503907,-1.568359 13.357592,13.310957 0 0 0 0.308593,-1.619141 A 13.357592,13.310957 0 0 0 21,45.259766 v -4.988282 a 2.9924229,2.9819755 0 0 0 -0.117188,-0.816406 2.9924229,2.9819755 0 0 0 -0.339843,-0.755859 2.9924229,2.9819755 0 0 0 -0.533203,-0.632813 2.9924229,2.9819755 0 0 0 -0.6875,-0.46289 L 12.638672,34.375 A 3.7775009,3.7643125 0 0 0 11.839844,34.095703 3.7775009,3.7643125 0 0 0 11,34 Z m 0,7.050781 c 0.04565,0 0.09167,0.0036 0.136719,0.01172 0.04445,0.008 0.08832,0.02118 0.130859,0.03711 0,0 0.002,0 0.002,0 0.04308,0.01625 0.08333,0.03612 0.123047,0.06055 0.03972,0.02443 0.07831,0.05329 0.113281,0.08594 l 4.039063,3.771484 c 0.279812,0.261158 0.279812,0.682201 0,0.94336 -0.279812,0.261158 -0.729954,0.261158 -1.009766,0 l -2.820312,-2.63086 v 6.955078 C 11.714844,50.680871 11.395714,51 11,51 10.604286,51 10.285156,50.680871 10.285156,50.285156 v -6.955078 l -2.820312,2.63086 c -0.279812,0.261158 -0.729954,0.261158 -1.009766,0 -0.279812,-0.261159 -0.279812,-0.682202 0,-0.94336 l 4.039063,-3.771484 c 0.03498,-0.03265 0.07356,-0.06151 0.113281,-0.08594 0.03972,-0.02443 0.07997,-0.04429 0.123047,-0.06055 0,0 0.002,0 0.002,0 0.04254,-0.01593 0.08641,-0.02911 0.130859,-0.03711 0.04505,-0.0081 0.09107,-0.01172 0.136719,-0.01172 z" />
    <rect
       style="fill:none;fill-opacity:1;stroke:none;stroke-width:2.11786;stroke-linecap:round;stroke-linejoin:round;stroke-miterlimit:4;stroke-dasharray:none;stroke-opacity:1;paint-order:stroke fill markers;stop-color:#000000"
       id="rect1079"
       width="32"
       height="32"
       x="-5"
       y="30.050793"
       rx="0"
       ry="0" />
  </g>
  <g
     id="22-22-pamac-tray-no-update">
    <path
       id="rect1004"
       style="fill:#fbfbfb;fill-opacity:1;fill-rule:evenodd;stroke-linejoin:round;paint-order:stroke fill markers"
       d="M 11,2 A 3.0220009,2.823234 0 0 0 10.328125,2.072266 3.0220009,2.823234 0 0 0 9.689453,2.2812504 L 4.341797,4.7031254 A 2.3939948,2.236534 0 0 0 3.792969,5.0507812 2.3939948,2.236534 0 0 0 3.365234,5.5253906 2.3939948,2.236534 0 0 0 3.09375,6.0898438 2.3939948,2.236534 0 0 0 3,6.7050781 v 3.7402339 a 10.687426,9.9844795 0 0 0 0.08398,1.234376 10.687426,9.9844795 0 0 0 0.246094,1.214843 10.687426,9.9844795 0 0 0 0.404297,1.175781 10.687426,9.9844795 0 0 0 0.556641,1.121094 10.687426,9.9844795 0 0 0 0.703125,1.048828 10.687426,9.9844795 0 0 0 0.833984,0.958985 10.687426,9.9844795 0 0 0 0.955078,0.855469 10.687426,9.9844795 0 0 0 1.0625,0.740234 10.687426,9.9844795 0 0 0 1.150391,0.609375 10.687426,9.9844795 0 0 0 1.222656,0.472656 l 0.05469,0.01758 a 2.3901074,2.2329023 0 0 0 0.480468,0.09375 2.3901074,2.2329023 0 0 0 0.492188,0 2.3901074,2.2329023 0 0 0 0.480468,-0.09375 l 0.06446,-0.01953 a 10.686075,9.9832165 0 0 0 1.220703,-0.474609 10.686075,9.9832165 0 0 0 1.15039,-0.609375 10.686075,9.9832165 0 0 0 1.058594,-0.740235 10.686075,9.9832165 0 0 0 0.955078,-0.853515 10.686075,9.9832165 0 0 0 0.833985,-0.958985 10.686075,9.9832165 0 0 0 0.701172,-1.048828 10.686075,9.9832165 0 0 0 0.55664,-1.121094 10.686075,9.9832165 0 0 0 0.404297,-1.175781 10.686075,9.9832165 0 0 0 0.244141,-1.214844 A 10.686075,9.9832165 0 0 0 19,10.445312 V 6.7050781 A 2.3939385,2.2364813 0 0 0 18.90625,6.0898438 2.3939385,2.2364813 0 0 0 18.634766,5.5253906 2.3939385,2.2364813 0 0 0 18.207031,5.0507812 2.3939385,2.2364813 0 0 0 17.658203,4.703125 L 12.310547,2.28125 A 3.0220009,2.823234 0 0 0 11.671875,2.0722656 3.0220009,2.823234 0 0 0 11,2 Z m 0,5 c 0.03195,0 0.06422,0.00368 0.0957,0.00977 0.03148,0.00608 0.06172,0.015154 0.0918,0.027344 0.03008,0.01219 0.06014,0.026598 0.08789,0.044922 0.02775,0.018324 0.05364,0.03997 0.07813,0.064453 l 2.828125,2.828125 c 0.195868,0.195869 0.195868,0.511163 0,0.707032 -0.195869,0.195868 -0.511163,0.195868 -0.707032,0 L 11.5,8.7070312 V 14.5 c 0,0.277 -0.223,0.5 -0.5,0.5 -0.277,0 -0.5,-0.223 -0.5,-0.5 V 8.7070312 L 8.525391,10.681641 c -0.195869,0.195868 -0.511163,0.195868 -0.707032,0 -0.195868,-0.195869 -0.195868,-0.511163 0,-0.7070316 l 2.792969,-2.7910156 c 0.01071,-0.013116 0.02291,-0.024868 0.03516,-0.037109 0.02448,-0.024484 0.05038,-0.04613 0.07813,-0.064453 0.02775,-0.018324 0.05781,-0.032732 0.08789,-0.044922 0.03008,-0.01219 0.06031,-0.021262 0.0918,-0.027344 C 10.935779,7.0036838 10.968048,7 11,7 Z" />
    <rect
       width="22"
       height="22"
       opacity="0"
       id="rect9"
       x="0"
       y="0" />
  </g>
  <g
     id="22-22-pamac-tray-update">
    <rect
       width="22"
       height="22"
       opacity="0"
       id="rect2428"
       x="38"
       y="0" />
    <path
       id="path4821"
       style="fill:#fbfbfb;fill-opacity:1;fill-rule:evenodd;stroke-linejoin:round;paint-order:stroke fill markers"
       d="M 49 2 A 3.0220009 2.823234 0 0 0 48.328125 2.0722656 A 3.0220009 2.823234 0 0 0 47.689453 2.28125 L 42.341797 4.703125 A 2.3939948 2.236534 0 0 0 41.792969 5.0507812 A 2.3939948 2.236534 0 0 0 41.365234 5.5253906 A 2.3939948 2.236534 0 0 0 41.09375 6.0898438 A 2.3939948 2.236534 0 0 0 41 6.7050781 L 41 10.445312 A 10.687426 9.9844795 0 0 0 41.083984 11.679688 A 10.687426 9.9844795 0 0 0 41.330078 12.894531 A 10.687426 9.9844795 0 0 0 41.734375 14.070312 A 10.687426 9.9844795 0 0 0 42.291016 15.191406 A 10.687426 9.9844795 0 0 0 42.994141 16.240234 A 10.687426 9.9844795 0 0 0 43.828125 17.199219 A 10.687426 9.9844795 0 0 0 44.783203 18.054688 A 10.687426 9.9844795 0 0 0 45.845703 18.794922 A 10.687426 9.9844795 0 0 0 46.996094 19.404297 A 10.687426 9.9844795 0 0 0 48.21875 19.876953 L 48.273438 19.894531 A 2.3901074 2.2329023 0 0 0 48.753906 19.988281 A 2.3901074 2.2329023 0 0 0 49.246094 19.988281 A 2.3901074 2.2329023 0 0 0 49.726562 19.894531 L 49.791016 19.875 A 10.686075 9.9832165 0 0 0 51.011719 19.400391 A 10.686075 9.9832165 0 0 0 52.115234 18.816406 A 3 3 0 0 1 52 18 A 3 3 0 0 1 55 15 A 3 3 0 0 1 55.755859 15.097656 A 10.686075 9.9832165 0 0 0 56.267578 14.068359 A 10.686075 9.9832165 0 0 0 56.671875 12.892578 A 10.686075 9.9832165 0 0 0 56.916016 11.677734 A 10.686075 9.9832165 0 0 0 57 10.445312 L 57 6.7050781 A 2.3939385 2.2364813 0 0 0 56.90625 6.0898438 A 2.3939385 2.2364813 0 0 0 56.634766 5.5253906 A 2.3939385 2.2364813 0 0 0 56.207031 5.0507812 A 2.3939385 2.2364813 0 0 0 55.658203 4.703125 L 50.310547 2.28125 A 3.0220009 2.823234 0 0 0 49.671875 2.0722656 A 3.0220009 2.823234 0 0 0 49 2 z M 49 7 C 49.03195 7 49.064223 7.0036756 49.095703 7.0097656 C 49.127183 7.0158456 49.15742 7.0249194 49.1875 7.0371094 C 49.21758 7.0492994 49.247641 7.0637073 49.275391 7.0820312 C 49.303141 7.1003552 49.329026 7.1220014 49.353516 7.1464844 L 52.181641 9.9746094 C 52.377509 10.170478 52.377509 10.485772 52.181641 10.681641 C 51.985772 10.877509 51.670478 10.877509 51.474609 10.681641 L 49.5 8.7070312 L 49.5 14.5 C 49.5 14.777 49.277 15 49 15 C 48.723 15 48.5 14.777 48.5 14.5 L 48.5 8.7070312 L 46.525391 10.681641 C 46.329522 10.877509 46.014228 10.877509 45.818359 10.681641 C 45.622491 10.485772 45.622491 10.170478 45.818359 9.9746094 L 48.611328 7.1835938 C 48.622038 7.1704777 48.634234 7.1587254 48.646484 7.1464844 C 48.670964 7.1220004 48.696859 7.1003543 48.724609 7.0820312 C 48.752359 7.0637073 48.78242 7.0492994 48.8125 7.0371094 C 48.84258 7.0249194 48.872817 7.0158476 48.904297 7.0097656 C 48.935768 7.0036836 48.968048 7 49 7 z " />
    <circle
       style="fill:#00a0ff;fill-opacity:1;fill-rule:evenodd;stroke-width:3;stroke-linecap:round;stroke-linejoin:round;paint-order:stroke fill markers"
       id="path4597"
       cx="55"
       cy="18"
       r="2" />
  </g>
  <g
     id="pamac-tray-update">
    <rect
       style="fill:none;fill-opacity:1;stroke:none;stroke-width:2.11786;stroke-linecap:round;stroke-linejoin:round;stroke-miterlimit:4;stroke-dasharray:none;stroke-opacity:1;paint-order:stroke fill markers;stop-color:#000000"
       id="rect3729"
       width="32"
       height="32"
       x="35.000004"
       y="30.050793"
       rx="0"
       ry="0" />
    <path
       id="path7796"
       style="fill:#fbfbfb;fill-opacity:1;fill-rule:evenodd;stroke-linejoin:round;paint-order:stroke fill markers"
       d="M 51 34 A 3.7775009 3.7643125 0 0 0 50.160156 34.095703 A 3.7775009 3.7643125 0 0 0 49.361328 34.375 L 42.677734 37.603516 A 2.9924934 2.9820457 0 0 0 41.990234 38.066406 A 2.9924934 2.9820457 0 0 0 41.457031 38.699219 A 2.9924934 2.9820457 0 0 0 41.117188 39.455078 A 2.9924934 2.9820457 0 0 0 41 40.271484 L 41 45.261719 A 13.359282 13.312641 0 0 0 41.103516 46.90625 A 13.359282 13.312641 0 0 0 41.412109 48.525391 A 13.359282 13.312641 0 0 0 41.917969 50.095703 A 13.359282 13.312641 0 0 0 42.615234 51.589844 A 13.359282 13.312641 0 0 0 43.492188 52.988281 A 13.359282 13.312641 0 0 0 44.535156 54.265625 A 13.359282 13.312641 0 0 0 45.730469 55.40625 A 13.359282 13.312641 0 0 0 47.056641 56.392578 A 13.359282 13.312641 0 0 0 48.494141 57.205078 A 13.359282 13.312641 0 0 0 50.023438 57.835938 L 50.091797 57.859375 A 2.9876341 2.9772034 0 0 0 50.693359 57.984375 A 2.9876341 2.9772034 0 0 0 51.306641 57.984375 A 2.9876341 2.9772034 0 0 0 51.908203 57.859375 L 51.988281 57.832031 A 13.357592 13.310957 0 0 0 53.515625 57.201172 A 13.357592 13.310957 0 0 0 54.199219 56.814453 A 4.5 4.5 0 0 1 54 55.5 A 4.5 4.5 0 0 1 58.5 51 A 4.5 4.5 0 0 1 59.597656 51.134766 A 13.357592 13.310957 0 0 0 60.083984 50.091797 A 13.357592 13.310957 0 0 0 60.587891 48.523438 A 13.357592 13.310957 0 0 0 60.896484 46.904297 A 13.357592 13.310957 0 0 0 61 45.259766 L 61 40.271484 A 2.9924229 2.9819755 0 0 0 60.882812 39.455078 A 2.9924229 2.9819755 0 0 0 60.542969 38.699219 A 2.9924229 2.9819755 0 0 0 60.009766 38.066406 A 2.9924229 2.9819755 0 0 0 59.322266 37.603516 L 52.638672 34.375 A 3.7775009 3.7643125 0 0 0 51.839844 34.095703 A 3.7775009 3.7643125 0 0 0 51 34 z M 51 41.050781 C 51.04565 41.050781 51.09167 41.05438 51.136719 41.0625 C 51.181169 41.0705 51.225039 41.083679 51.267578 41.099609 L 51.269531 41.099609 C 51.312611 41.115859 51.352861 41.135726 51.392578 41.160156 C 51.432298 41.184586 51.470888 41.213444 51.505859 41.246094 L 55.544922 45.017578 C 55.824734 45.278736 55.824734 45.699779 55.544922 45.960938 C 55.26511 46.222096 54.814968 46.222096 54.535156 45.960938 L 51.714844 43.330078 L 51.714844 50.285156 C 51.714797 50.680864 51.395714 51 51 51 C 50.604286 51 50.285156 50.680871 50.285156 50.285156 L 50.285156 43.330078 L 47.464844 45.960938 C 47.185032 46.222096 46.73489 46.222096 46.455078 45.960938 C 46.175266 45.699779 46.175266 45.278736 46.455078 45.017578 L 50.494141 41.246094 C 50.529121 41.213444 50.567701 41.184586 50.607422 41.160156 C 50.647142 41.135726 50.687392 41.115869 50.730469 41.099609 L 50.732422 41.099609 C 50.774962 41.083679 50.818832 41.0705 50.863281 41.0625 C 50.908331 41.0544 50.954351 41.050781 51 41.050781 z " />
    <circle
       style="fill:#00a0ff;fill-opacity:1;fill-rule:evenodd;stroke:none;stroke-width:3;stroke-linecap:round;stroke-linejoin:round;paint-order:stroke fill markers"
       id="path3769"
       cx="58.500004"
       cy="55.5"
       r="2.5" />
  </g>
</svg>
