<?xml version="1.0" encoding="UTF-8" standalone="no"?>
<svg
   id="svg4143"
   width="22"
   height="22"
   version="1.1"
   viewBox="0 0 22 22"
   sodipodi:docname="update.svg"
   inkscape:version="1.2 (dc2aedaf03, 2022-05-15)"
   xmlns:inkscape="http://www.inkscape.org/namespaces/inkscape"
   xmlns:sodipodi="http://sodipodi.sourceforge.net/DTD/sodipodi-0.dtd"
   xmlns="http://www.w3.org/2000/svg"
   xmlns:svg="http://www.w3.org/2000/svg"
   xmlns:rdf="http://www.w3.org/1999/02/22-rdf-syntax-ns#"
   xmlns:cc="http://creativecommons.org/ns#"
   xmlns:dc="http://purl.org/dc/elements/1.1/">
  <metadata
     id="metadata23">
    <rdf:RDF>
      <cc:Work
         rdf:about="">
        <dc:format>image/svg+xml</dc:format>
        <dc:type
           rdf:resource="http://purl.org/dc/dcmitype/StillImage" />
        <dc:title />
      </cc:Work>
    </rdf:RDF>
  </metadata>
  <sodipodi:namedview
     pagecolor="#323232"
     bordercolor="#666666"
     borderopacity="1"
     objecttolerance="10"
     gridtolerance="10"
     guidetolerance="10"
     inkscape:pageopacity="0"
     inkscape:pageshadow="2"
     inkscape:window-width="1920"
     inkscape:window-height="1001"
     id="namedview21"
     showgrid="true"
     inkscape:zoom="5.2693535"
     inkscape:cx="29.794926"
     inkscape:cy="25.904506"
     inkscape:window-x="0"
     inkscape:window-y="0"
     inkscape:window-maximized="1"
     inkscape:current-layer="svg4143"
     inkscape:document-rotation="0"
     inkscape:snap-bbox="true"
     inkscape:bbox-nodes="true"
     inkscape:snap-bbox-edge-midpoints="true"
     inkscape:pagecheckerboard="0"
     inkscape:showpageshadow="0"
     inkscape:deskcolor="#323232">
    <inkscape:grid
       type="xygrid"
       id="grid864" />
  </sodipodi:namedview>
  <defs
     id="defs4157">
    <style
       id="current-color-scheme"
       type="text/css">
   .ColorScheme-Text { color:#333333; } .ColorScheme-Highlight { color:#5294e2; } .ColorScheme-ButtonBackground { color:#333333; }
  </style>
  </defs>
  <g
     id="update-none">
    <path
       id="path394"
       style="font-variation-settings:'wght' 700;fill:#ffffff;fill-opacity:1;fill-rule:evenodd;stroke-linecap:square;stroke-linejoin:round;paint-order:stroke fill markers"
       d="m 11,2 a 9,9 0 0 0 -9,9 9,9 0 0 0 9,9 9,9 0 0 0 9,-9 9,9 0 0 0 -9,-9 z m 4.595703,5.3183594 c 0.127809,0 0.255582,0.04855 0.353516,0.1464844 0.195868,0.1958681 0.195868,0.511163 0,0.7070312 l -6.363281,6.363281 c -0.024484,0.02448 -0.050376,0.04609 -0.078126,0.06445 -0.021793,0.01442 -0.045065,0.02646 -0.068359,0.03711 -0.013391,0.0061 -0.027245,0.01074 -0.041015,0.01563 -0.023274,0.0082 -0.046289,0.01681 -0.070313,0.02148 -0.031481,0.0061 -0.063755,0.0078 -0.095703,0.0078 -0.031948,0 -0.064222,-0.0017 -0.095703,-0.0078 -0.024024,-0.0047 -0.04704,-0.01325 -0.070313,-0.02148 -0.01377,-0.0049 -0.027624,-0.0095 -0.041015,-0.01563 -0.023294,-0.01065 -0.046566,-0.02269 -0.06836,-0.03711 C 8.929282,14.581247 8.90339,14.55964 8.878906,14.535156 L 8.84375,14.498047 6.050781,11.707031 C 5.854913,11.511163 5.854913,11.195868 6.050781,11 6.24665,10.804132 6.561944,10.804132 6.757812,11 l 2.47461,2.474609 6.009766,-6.0097652 c 0.09793,-0.097934 0.225706,-0.1464844 0.353515,-0.1464844 z" />
    <rect
       y="0"
       x="0"
       height="22"
       width="22"
       id="rect3106"
       style="clip-rule:evenodd;fill:#000000;fill-opacity:0;fill-rule:evenodd;stroke-width:0.546348;stroke-linejoin:round;stroke-miterlimit:1.41421" />
  </g>
  <g
     id="update-low">
    <path
       id="path726"
       style="font-variation-settings:'wght' 700;opacity:0.4;fill:#ffffff;fill-opacity:1;fill-rule:evenodd;stroke-linecap:square;stroke-linejoin:round;paint-order:stroke fill markers"
       d="M 46,1.9999996 A 9,9 0 0 0 37,11 a 9,9 0 0 0 9,9 9,9 0 0 0 9,-9 9,9 0 0 0 -9,-9.0000004 z m 0,5 c 0.127967,0 0.255866,0.048849 0.353516,0.146484 l 3,3.0000004 c 0.195199,0.19526 0.195199,0.511771 0,0.707031 -0.1953,0.19525 -0.511732,0.19525 -0.707032,0 L 46.5,8.7070308 V 14.5 c 0,0.276099 -0.2239,0.5 -0.5,0.5 -0.27614,0 -0.5,-0.223901 -0.5,-0.5 V 8.7070308 l -2.146484,2.1464842 c -0.19526,0.19525 -0.511772,0.19525 -0.707032,0 -0.195269,-0.19526 -0.195269,-0.511771 0,-0.707031 l 3,-3.0000004 C 45.744114,7.0488486 45.872033,6.9999996 46,6.9999996 Z" />
    <rect
       y="0"
       x="35"
       height="22"
       width="22"
       id="rect1009"
       style="clip-rule:evenodd;fill:#000000;fill-opacity:0;fill-rule:evenodd;stroke-width:0.546348;stroke-linejoin:round;stroke-miterlimit:1.41421" />
  </g>
  <g
     id="g326"
     transform="translate(-5.267347,-21.317565)" />
  <g
     id="update-medium"
     transform="translate(0,29)">
    <path
       id="path3536"
       style="font-variation-settings:'wght' 700;opacity:0.7;fill:#ffffff;fill-opacity:1;fill-rule:evenodd;stroke-linecap:square;stroke-linejoin:round;paint-order:stroke fill markers"
       d="M 46,1.9999996 A 9,9 0 0 0 37,11 a 9,9 0 0 0 9,9 9,9 0 0 0 9,-9 9,9 0 0 0 -9,-9.0000004 z m 0,5 c 0.127967,0 0.255866,0.048849 0.353516,0.146484 l 3,3.0000004 c 0.195199,0.19526 0.195199,0.511771 0,0.707031 -0.1953,0.19525 -0.511732,0.19525 -0.707032,0 L 46.5,8.7070308 V 14.5 c 0,0.276099 -0.2239,0.5 -0.5,0.5 -0.27614,0 -0.5,-0.223901 -0.5,-0.5 V 8.7070308 l -2.146484,2.1464842 c -0.19526,0.19525 -0.511772,0.19525 -0.707032,0 -0.195269,-0.19526 -0.195269,-0.511771 0,-0.707031 l 3,-3.0000004 C 45.744114,7.0488486 45.872033,6.9999996 46,6.9999996 Z" />
    <rect
       y="0"
       x="35"
       height="22"
       width="22"
       id="rect3538"
       style="clip-rule:evenodd;fill:#000000;fill-opacity:0;fill-rule:evenodd;stroke-width:0.546348;stroke-linejoin:round;stroke-miterlimit:1.41421" />
  </g>
  <g
     id="update-high"
     transform="translate(0,58.146485)">
    <path
       id="path4994"
       style="font-variation-settings:'wght' 700;opacity:1;fill:#ffffff;fill-opacity:1;fill-rule:evenodd;stroke-linecap:square;stroke-linejoin:round;paint-order:stroke fill markers"
       d="M 46,1.9999996 A 9,9 0 0 0 37,11 a 9,9 0 0 0 9,9 9,9 0 0 0 9,-9 9,9 0 0 0 -9,-9.0000004 z m 0,5 c 0.127967,0 0.255866,0.048849 0.353516,0.146484 l 3,3.0000004 c 0.195199,0.19526 0.195199,0.511771 0,0.707031 -0.1953,0.19525 -0.511732,0.19525 -0.707032,0 L 46.5,8.7070308 V 14.5 c 0,0.276099 -0.2239,0.5 -0.5,0.5 -0.27614,0 -0.5,-0.223901 -0.5,-0.5 V 8.7070308 l -2.146484,2.1464842 c -0.19526,0.19525 -0.511772,0.19525 -0.707032,0 -0.195269,-0.19526 -0.195269,-0.511771 0,-0.707031 l 3,-3.0000004 C 45.744114,7.0488486 45.872033,6.9999996 46,6.9999996 Z" />
    <rect
       y="0"
       x="35"
       height="22"
       width="22"
       id="rect4996"
       style="clip-rule:evenodd;fill:#000000;fill-opacity:0;fill-rule:evenodd;stroke-width:0.546348;stroke-linejoin:round;stroke-miterlimit:1.41421" />
  </g>
</svg>
