<?xml version="1.0" encoding="UTF-8" standalone="no"?>
<svg
   width="22"
   height="22"
   version="1.1"
   viewBox="0 0 22 22"
   id="svg20"
   sodipodi:docname="vlc.svg"
   inkscape:version="1.1.1 (3bf5ae0d25, 2021-09-20, custom)"
   xmlns:inkscape="http://www.inkscape.org/namespaces/inkscape"
   xmlns:sodipodi="http://sodipodi.sourceforge.net/DTD/sodipodi-0.dtd"
   xmlns="http://www.w3.org/2000/svg"
   xmlns:svg="http://www.w3.org/2000/svg"
   xmlns:rdf="http://www.w3.org/1999/02/22-rdf-syntax-ns#"
   xmlns:cc="http://creativecommons.org/ns#"
   xmlns:dc="http://purl.org/dc/elements/1.1/">
  <metadata
     id="metadata24">
    <rdf:RDF>
      <cc:Work
         rdf:about="">
        <dc:format>image/svg+xml</dc:format>
        <dc:type
           rdf:resource="http://purl.org/dc/dcmitype/StillImage" />
        <dc:title />
      </cc:Work>
    </rdf:RDF>
  </metadata>
  <sodipodi:namedview
     pagecolor="#329632"
     bordercolor="#666666"
     borderopacity="1"
     objecttolerance="10"
     gridtolerance="10"
     guidetolerance="10"
     inkscape:pageopacity="0"
     inkscape:pageshadow="2"
     inkscape:window-width="1920"
     inkscape:window-height="1005"
     id="namedview22"
     showgrid="true"
     inkscape:zoom="35.227272"
     inkscape:cx="7.735484"
     inkscape:cy="8.8851615"
     inkscape:window-x="0"
     inkscape:window-y="0"
     inkscape:window-maximized="1"
     inkscape:current-layer="svg20"
     inkscape:document-rotation="0"
     inkscape:pagecheckerboard="0">
    <inkscape:grid
       type="xygrid"
       id="grid830" />
  </sodipodi:namedview>
  <defs
     id="defs3">
    <style
       id="current-color-scheme"
       type="text/css">.ColorScheme-Text {
        color:#363636;
      }</style>
  </defs>
  <g
     transform="translate(0 -1030.4)"
     id="g18">
    <g
       id="vlc"
       class="ColorScheme-Text"
       fill="currentColor">
      <path
         id="path5"
         style="fill:#ffffff;fill-opacity:1"
         d="M 9.8808594 3 A 1.0001 1.0001 0 0 0 8.9160156 3.734375 L 5.2558594 17 L 6 17 L 6.2949219 17 L 15.705078 17 L 16 17 L 16.744141 17 L 13.083984 3.734375 A 1.0001 1.0001 0 0 0 12.119141 3 L 9.8808594 3 z M 9.6054688 5 L 12.394531 5 L 12.669922 6 L 9.3300781 6 L 9.6054688 5 z M 8.2265625 10 L 13.773438 10 L 14.050781 11 L 7.9492188 11 L 8.2265625 10 z M 7.6738281 12 L 14.326172 12 L 15.429688 16 L 6.5703125 16 L 7.6738281 12 z "
         transform="translate(0,1030.4)" />
      <g
         class="ColorScheme-Text"
         fill="currentColor"
         id="g13">
        <rect
           x="3"
           y="1047.4"
           width="16"
           height="2"
           rx="1"
           ry="1"
           id="rect7"
           style="fill:#ffffff;fill-opacity:1" />
        <path
           d="m7.5 1042.4h7l1 3h-9z"
           id="path11"
           style="fill:#ffffff;fill-opacity:1" />
      </g>
      <rect
         y="1030.4"
         width="22"
         height="22"
         fill="none"
         id="rect15" />
    </g>
  </g>
</svg>
