<?xml version="1.0" encoding="UTF-8" standalone="no"?>
<svg
   width="22"
   height="22"
   version="1.1"
   id="svg12"
   sodipodi:docname="yakuake.svg"
   inkscape:version="1.1.1 (3bf5ae0d25, 2021-09-20, custom)"
   xmlns:inkscape="http://www.inkscape.org/namespaces/inkscape"
   xmlns:sodipodi="http://sodipodi.sourceforge.net/DTD/sodipodi-0.dtd"
   xmlns="http://www.w3.org/2000/svg"
   xmlns:svg="http://www.w3.org/2000/svg"
   xmlns:rdf="http://www.w3.org/1999/02/22-rdf-syntax-ns#"
   xmlns:cc="http://creativecommons.org/ns#"
   xmlns:dc="http://purl.org/dc/elements/1.1/">
  <metadata
     id="metadata16">
    <rdf:RDF>
      <cc:Work
         rdf:about="">
        <dc:format>image/svg+xml</dc:format>
        <dc:type
           rdf:resource="http://purl.org/dc/dcmitype/StillImage" />
        <dc:title />
      </cc:Work>
    </rdf:RDF>
  </metadata>
  <sodipodi:namedview
     pagecolor="#c8c8c8"
     bordercolor="#666666"
     borderopacity="1"
     objecttolerance="10"
     gridtolerance="10"
     guidetolerance="10"
     inkscape:pageopacity="0"
     inkscape:pageshadow="2"
     inkscape:window-width="1920"
     inkscape:window-height="1005"
     id="namedview14"
     showgrid="true"
     inkscape:snap-bbox="true"
     inkscape:bbox-nodes="true"
     inkscape:snap-bbox-edge-midpoints="true"
     inkscape:zoom="18.886364"
     inkscape:cx="5.215403"
     inkscape:cy="10.854392"
     inkscape:window-x="0"
     inkscape:window-y="0"
     inkscape:window-maximized="1"
     inkscape:current-layer="svg12"
     inkscape:document-rotation="0"
     inkscape:pagecheckerboard="0">
    <inkscape:grid
       type="xygrid"
       id="grid841" />
  </sodipodi:namedview>
  <defs
     id="defs3">
    <style
       id="current-color-scheme"
       type="text/css">.ColorScheme-Text { color:#363636; } .ColorScheme-Highlight { color:#4285f4; }</style>
  </defs>
  <g
     id="yakuake">
    <rect
       width="22"
       height="22"
       fill="none"
       id="rect9"
       x="0"
       y="0" />
    <path
       id="rect1032"
       style="fill:#fbfbfb;fill-rule:evenodd;stroke-width:2;stroke-linecap:round;stroke-linejoin:round;paint-order:stroke fill markers"
       d="M 4,2 C 2.892,2 2,2.892 2,4 v 14 c 0,1.108 0.892,2 2,2 h 14 c 1.108,0 2,-0.892 2,-2 V 4 C 20,2.892 19.108,2 18,2 Z m 2.464844,5.671875 c 0.127809,0 0.255581,0.04855 0.353515,0.1464844 l 2.828125,2.8281246 c 0.085693,0.08569 0.13382,0.193263 0.144532,0.304688 0.00153,0.01592 0.00195,0.03285 0.00195,0.04883 0,0.111833 -0.036347,0.224587 -0.111328,0.316406 -0.010712,0.01312 -0.022915,0.02487 -0.035157,0.03711 l -2.828125,2.828125 c -0.195868,0.195868 -0.511162,0.195868 -0.707031,0 -0.195868,-0.195869 -0.195868,-0.511163 0,-0.707032 L 8.585938,11 6.111328,8.5253906 C 5.91546,8.329522 5.91546,8.014228 6.111328,7.8183594 6.209262,7.7204251 6.337034,7.671875 6.464844,7.671875 Z M 10.5,14 h 4 c 0.277,0 0.5,0.223 0.5,0.5 0,0.277 -0.223,0.5 -0.5,0.5 h -4 C 10.223,15 10,14.777 10,14.5 10,14.223 10.223,14 10.5,14 Z" />
  </g>
</svg>
